<?xml version="1.0" encoding="utf-8"?>
<!-- Generator: Adobe Illustrator 27.5.0, SVG Export Plug-In . SVG Version: 6.00 Build 0)  -->
<svg version="1.1" id="Banner" xmlns="http://www.w3.org/2000/svg" xmlns:xlink="http://www.w3.org/1999/xlink" x="0px" y="0px"
	 viewBox="0 0 1920 1080" style="enable-background:new 0 0 1920 1080;" xml:space="preserve">
<rect id="Background_1_" style="fill:#F1F1F1;" width="1920" height="1080"/>
<g id="Graphic_elements_1_">
	<g>
		<path style="fill:#BA1616;" d="M1363.019,889.12c-78.242,0-141.897-63.655-141.897-141.898c0-31.994,22.741-88.935,67.591-169.24
			c33.006-59.098,66.462-109.869,66.796-110.375c1.666-2.522,4.487-4.04,7.511-4.04s5.845,1.518,7.511,4.04
			c0.334,0.506,33.79,51.277,66.796,110.375c44.85,80.305,67.591,137.246,67.591,169.24
			C1504.916,825.464,1441.261,889.12,1363.019,889.12z M1363.019,489.13c-11.677,18.239-35.275,55.874-58.643,97.721
			c-53.934,96.585-65.255,140.521-65.255,160.371c0,68.317,55.58,123.898,123.897,123.898s123.898-55.581,123.898-123.898
			c0-19.85-11.321-63.785-65.255-160.371C1398.294,545.004,1374.696,507.369,1363.019,489.13z"/>
	</g>
	<g>
		<path style="fill:none;" d="M1073.379,818.306c-9.96-13.004-17.79-27.735-21.483-40.416c-3.401-11.681-9.532-15.716-11.42-15.362
			c-0.795,0.153-2.848,3.237-2.066,11.322c2.141,22.181,24.382,48.123,26.559,50.613c4.466,4.109,8.053,7.224,9.655,8.598
			c6.194,1.896,12.139,3.532,17.509,4.907C1085.856,832.924,1079.471,826.26,1073.379,818.306z"/>
		<path style="fill:none;" d="M1237.286,968.929c2.903-20.167,0.287-40.389-7.566-58.479c-8.283-19.079-21.33-34.226-35.796-41.557
			c-3.228-1.637-6.253-3.135-9.112-4.552c-22.04-10.921-35.343-17.512-56.416-44.685c-18.114-23.357-28.294-28.314-33.668-28.314
			c-0.043,0-0.085,0-0.127,0.001c-1.818,0.027-4.614,0.591-7.975,5.119c-0.15,0.969-0.364,8.761,22.979,36.923
			c13.147,15.861,27.044,30.004,27.183,30.145c2.324,2.361,2.295,6.16-0.066,8.485c-2.361,2.324-6.158,2.296-8.485-0.065
			c-0.42-0.427-7.275-7.404-15.955-17.102c-12.927-2.467-79.981-16.359-106.918-43.713c-3.425-3.478-6.737-6.914-9.941-10.236
			c-13.822-14.332-29.512-30.58-36.379-29.523c-1.406,0.215-2.792,1.668-4.119,4.32c-0.039,0.079-2.929,8.8,33.367,41.786
			c20.496,18.627,46.34,38.31,60.251,47.375c12.66,8.249,30.123,22.776,48.611,38.156c7.286,6.061,14.82,12.329,22.034,18.18
			c28.162,22.841,40.833,58.125,36.644,102.037c-2.599,27.237-10.802,49.576-13.686,56.772h91.523l-0.076-54.218
			C1233.563,1004.996,1234.771,986.399,1237.286,968.929z"/>
		<path style="fill:none;" d="M1606.85,921.191c7.214-5.851,14.748-12.118,22.034-18.18c18.488-15.38,35.951-29.907,48.611-38.156
			c13.911-9.065,39.755-28.748,60.251-47.375c36.296-32.986,33.406-41.707,33.367-41.786c-1.327-2.652-2.713-4.105-4.119-4.32
			c-6.883-1.055-22.557,15.192-36.379,29.523c-3.204,3.322-6.517,6.758-9.941,10.236c-26.938,27.353-93.992,41.246-106.918,43.713
			c-8.68,9.698-15.534,16.675-15.955,17.102c-2.327,2.361-6.124,2.389-8.485,0.065c-2.36-2.325-2.39-6.124-0.065-8.485
			c0.139-0.141,14.035-14.284,27.183-30.145c23.344-28.163,23.129-35.955,22.979-36.923c-3.36-4.528-6.156-5.092-7.975-5.119
			c-0.042-0.001-0.085-0.001-0.127-0.001c-5.373,0-15.553,4.956-33.668,28.314c-21.073,27.173-34.376,33.765-56.416,44.685
			c-2.859,1.417-5.884,2.916-9.112,4.552c-14.466,7.331-27.513,22.479-35.796,41.558c-7.854,18.09-10.47,38.312-7.566,58.479
			c2.516,17.47,3.724,36.066,3.694,56.853l-0.076,54.218h91.523c-2.885-7.196-11.088-29.535-13.687-56.772
			C1566.017,979.316,1578.688,944.032,1606.85,921.191z"/>
		<path style="fill:none;" d="M1020.164,789.649c-6.139-11.025-16.412-29.477-24.9-31.835c-1.415-0.392-2.576-0.236-3.893,0.521
			c-2.019,1.159-2.812,8.92,8.595,29.993c1.339,1.383,2.701,2.795,4.094,4.239c3.183,3.3,6.473,6.712,9.854,10.146
			c7.565,7.681,19.068,14.275,31.671,19.782c-8.163-8.209-16.566-17.602-21.346-25.662
			C1023,794.743,1021.622,792.269,1020.164,789.649z"/>
		<path style="fill:none;" d="M1734.667,758.335c-1.317-0.756-2.479-0.911-3.894-0.521c-8.488,2.358-18.762,20.81-24.9,31.835
			c-1.458,2.619-2.836,5.093-4.075,7.184c-4.778,8.057-13.174,17.444-21.334,25.65c12.602-5.507,24.102-12.097,31.659-19.77
			c3.382-3.434,6.672-6.846,9.854-10.146c1.393-1.444,2.755-2.856,4.094-4.239C1737.479,767.255,1736.686,759.494,1734.667,758.335z
			"/>
		<path style="fill:none;" d="M1685.561,762.528c-1.882-0.354-8.018,3.681-11.42,15.362c-3.692,12.681-11.522,27.412-21.482,40.416
			c-6.089,7.95-12.471,14.612-18.745,19.654c5.37-1.376,11.316-3.013,17.51-4.91c1.609-1.38,5.194-4.494,9.655-8.6
			c2.238-2.561,24.411-28.455,26.549-50.601C1688.408,765.765,1686.356,762.681,1685.561,762.528z"/>
		<path style="fill:#403333;" d="M1199.35,858.188c-3.264-1.654-6.32-3.168-9.211-4.601c-21.198-10.504-32.875-16.29-52.261-41.287
			c-17.575-22.664-31.357-33.14-43.455-32.958c-6.819,0.101-12.746,3.538-17.616,10.216c-1.887,2.587-2.566,5.783-1.982,9.732
			c-5.01-8.168-9.077-16.756-11.406-24.756c-4.649-15.967-15.015-25.749-25.205-23.791c-3.245,0.624-13.683,4.215-11.748,24.259
			c0.056,0.583,0.138,1.168,0.215,1.752c-7.67-13.379-16.905-27.364-28.205-30.503c-4.479-1.245-9-0.665-13.077,1.674
			c-7.267,4.17-8.218,11.995-6.587,20.243c-7.883-6.292-14.883-9.684-21.58-8.658c-5.479,0.837-9.865,4.474-13.037,10.811
			c-5.544,11.074,5.567,28.357,36.027,56.039c20.959,19.047,47.469,39.229,61.771,48.548c12.074,7.868,29.276,22.178,47.487,37.328
			c7.314,6.085,14.879,12.377,22.15,18.275c25.18,20.422,36.042,51.13,32.285,91.27c-2.872,30.684-13.65,55.559-13.757,55.803
			c-0.346,0.787-0.506,1.607-0.505,2.415h12.493c2.885-7.196,11.088-29.535,13.686-56.772c4.19-43.912-8.481-79.196-36.644-102.037
			c-7.214-5.851-14.748-12.118-22.034-18.18c-18.488-15.38-35.951-29.907-48.611-38.156c-13.911-9.065-39.755-28.748-60.251-47.375
			c-36.296-32.986-33.406-41.707-33.367-41.786c1.327-2.652,2.713-4.105,4.119-4.32c6.867-1.057,22.557,15.191,36.379,29.523
			c3.204,3.322,6.517,6.758,9.941,10.236c26.938,27.353,93.992,41.246,106.918,43.713c8.68,9.698,15.534,16.675,15.955,17.102
			c2.327,2.361,6.124,2.389,8.485,0.065c2.36-2.325,2.39-6.124,0.066-8.485c-0.139-0.141-14.035-14.284-27.183-30.145
			c-23.343-28.162-23.129-35.954-22.979-36.923c3.36-4.528,6.156-5.092,7.975-5.119c0.042-0.001,0.084-0.001,0.127-0.001
			c5.374,0,15.554,4.957,33.668,28.314c21.073,27.173,34.376,33.765,56.416,44.685c2.859,1.417,5.884,2.916,9.112,4.552
			c14.466,7.331,27.513,22.479,35.796,41.557c7.854,18.09,10.47,38.312,7.566,58.479c-2.516,17.47-3.724,36.066-3.694,56.853
			l0.076,54.218h12c0-0.003,0-0.005,0-0.008l-0.076-54.226c-0.028-20.203,1.14-38.235,3.571-55.126
			c3.222-22.371,0.304-44.837-8.436-64.968C1231.349,884.07,1216.268,866.763,1199.35,858.188z M1013.914,802.713
			c-3.382-3.434-6.672-6.846-9.854-10.146c-1.393-1.444-2.755-2.856-4.094-4.239c-11.407-21.073-10.614-28.834-8.595-29.993
			c1.317-0.756,2.479-0.912,3.893-0.521c8.488,2.358,18.762,20.81,24.9,31.835c1.458,2.619,2.836,5.093,4.075,7.184
			c4.78,8.06,13.182,17.453,21.346,25.662C1032.982,816.988,1021.479,810.395,1013.914,802.713z M1092.134,837.968
			c-5.369-1.375-11.315-3.011-17.509-4.907c-1.602-1.374-5.19-4.489-9.655-8.598c-2.177-2.49-24.418-28.432-26.559-50.613
			c-0.781-8.085,1.271-11.169,2.066-11.322c1.888-0.354,8.019,3.682,11.42,15.362c3.692,12.681,11.522,27.412,21.483,40.416
			C1079.471,826.26,1085.856,832.924,1092.134,837.968z"/>
		<path style="fill:#403333;" d="M1781.844,770.323c-3.172-6.337-7.558-9.974-13.037-10.811c-6.7-1.023-13.699,2.367-21.58,8.657
			c1.631-8.248,0.679-16.072-6.587-20.242c-4.077-2.34-8.599-2.917-13.077-1.674c-11.3,3.138-20.536,17.123-28.205,30.503
			c0.077-0.584,0.159-1.169,0.215-1.752c1.935-20.044-8.503-23.636-11.748-24.259c-10.204-1.961-20.556,7.826-25.205,23.791
			c-2.33,7.999-6.396,16.587-11.406,24.756c0.583-3.949-0.096-7.145-1.982-9.732c-4.87-6.678-10.797-10.115-17.616-10.216
			c-0.101-0.001-0.202-0.002-0.304-0.002c-11.998,0-25.723,10.486-43.151,32.96c-19.386,24.997-31.063,30.783-52.261,41.287
			c-2.891,1.432-5.947,2.947-9.211,4.601c-16.918,8.575-31.999,25.881-41.378,47.483c-8.739,20.131-11.657,42.597-8.436,64.968
			c2.432,16.892,3.6,34.923,3.571,55.126l-0.076,54.226c0,0.003,0,0.005,0,0.008h12l0.076-54.218
			c0.029-20.787-1.179-39.383-3.694-56.853c-2.903-20.167-0.287-40.389,7.566-58.479c8.283-19.079,21.33-34.227,35.796-41.558
			c3.229-1.637,6.253-3.135,9.112-4.552c22.04-10.921,35.343-17.512,56.416-44.685c18.115-23.358,28.295-28.314,33.668-28.314
			c0.042,0,0.085,0,0.127,0.001c1.818,0.027,4.614,0.591,7.975,5.119c0.15,0.968,0.365,8.76-22.979,36.923
			c-13.147,15.861-27.044,30.004-27.183,30.145c-2.324,2.361-2.295,6.16,0.065,8.485c2.361,2.324,6.158,2.296,8.485-0.065
			c0.42-0.427,7.275-7.404,15.955-17.102c12.927-2.467,79.981-16.359,106.918-43.713c3.425-3.478,6.737-6.914,9.941-10.236
			c13.822-14.331,29.496-30.578,36.379-29.523c1.406,0.215,2.792,1.668,4.119,4.32c0.039,0.079,2.929,8.8-33.367,41.786
			c-20.496,18.627-46.34,38.31-60.251,47.375c-12.66,8.249-30.123,22.776-48.611,38.156c-7.286,6.061-14.82,12.329-22.034,18.18
			c-28.162,22.841-40.833,58.125-36.644,102.037c2.599,27.237,10.802,49.576,13.687,56.772h12.492
			c0.001-0.807-0.158-1.626-0.502-2.412c-0.108-0.248-10.887-25.123-13.759-55.807c-3.757-40.14,7.106-70.848,32.285-91.27
			c7.271-5.898,14.836-12.19,22.15-18.275c18.211-15.15,35.413-29.46,47.487-37.328c14.302-9.319,40.812-29.5,61.771-48.548
			C1776.276,798.68,1787.388,781.396,1781.844,770.323z M1651.423,833.051c-6.194,1.897-12.14,3.534-17.51,4.91
			c6.274-5.043,12.656-11.704,18.745-19.654c9.96-13.004,17.79-27.735,21.482-40.416c3.402-11.681,9.538-15.716,11.42-15.362
			c0.795,0.153,2.848,3.237,2.066,11.322c-2.137,22.145-24.311,48.039-26.549,50.601
			C1656.618,828.557,1653.033,831.67,1651.423,833.051z M1726.072,788.328c-1.339,1.383-2.701,2.795-4.094,4.239
			c-3.183,3.3-6.473,6.712-9.854,10.146c-7.557,7.674-19.057,14.264-31.659,19.77c8.159-8.206,16.556-17.594,21.334-25.65
			c1.239-2.091,2.617-4.565,4.075-7.184c6.139-11.025,16.412-29.477,24.9-31.835c1.415-0.391,2.576-0.235,3.894,0.521
			C1736.686,759.494,1737.479,767.255,1726.072,788.328z"/>
	</g>
</g>
<g id="Text_9_">
	<text transform="matrix(1 0 0 1 169.1602 187.1504)" style="fill:#BA1616; font-family:'Muli-Bold'; font-size:50px;">example.com</text>
	<text transform="matrix(1 0 0 1 169.5273 371.501)"><tspan x="0" y="0" style="fill:#BF282A; font-family:'Muli-ExtraBold'; font-size:131px;">Your donation</tspan><tspan x="0" y="157.2" style="fill:#BF282A; font-family:'Muli-ExtraBold'; font-size:131px;">impacts lives</tspan></text>
</g>
</svg>
