<?xml version="1.0" encoding="utf-8"?>
<!-- Generator: Adobe Illustrator 24.3.0, SVG Export Plug-In . SVG Version: 6.00 Build 0)  -->
<svg version="1.1" xmlns="http://www.w3.org/2000/svg" xmlns:xlink="http://www.w3.org/1999/xlink" x="0px" y="0px"
	 viewBox="0 0 1040 500" style="enable-background:new 0 0 1040 500;" xml:space="preserve">
<style type="text/css">
	.st0{fill:#EA9292;}
	.st1{clip-path:url(#SVGID_2_);}
	.st2{fill:#31AFAC;}
	.st3{fill:#64DDDD;}
	.st4{fill:#8FF9F6;}
	.st5{fill:#FFB0BA;}
	.st6{fill:#E31C29;}
	.st7{fill:#C70E1D;}
	.st8{fill:#FFFFFF;}
	.st9{clip-path:url(#SVGID_4_);fill:#1C232D;}
	.st10{clip-path:url(#SVGID_4_);fill:#C70E1D;}
	.st11{fill:#1C232D;}
	.st12{fill:#F4899B;}
	.st13{clip-path:url(#SVGID_6_);fill:#1C232D;}
	.st14{clip-path:url(#SVGID_6_);fill:#C70E1D;}
	.st15{fill:#EBF9FA;}
	.st16{fill:#C7EEEF;}
	.st17{clip-path:url(#SVGID_8_);fill:#1C232D;}
	.st18{clip-path:url(#SVGID_8_);fill:#C70E1D;}
	.st19{fill:#8CE0E0;}
	.st20{clip-path:url(#SVGID_2_);fill:none;stroke:#E31C29;stroke-miterlimit:10;}
	.st21{clip-path:url(#SVGID_2_);fill:#E31C29;}
	.st22{clip-path:url(#SVGID_2_);fill:none;stroke:#C70E1D;stroke-miterlimit:10;}
	.st23{clip-path:url(#SVGID_2_);fill:#C70E1D;}
	.st24{clip-path:url(#SVGID_2_);fill:#FFFFFF;}
	.st25{clip-path:url(#SVGID_2_);fill:none;stroke:#FFFFFF;stroke-miterlimit:10;}
</style>
<g id="BACKGROUND">
	<rect class="st0" width="1040" height="500"/>
</g>
<g id="OBJECTS">
	<g>
		<defs>
			<rect id="SVGID_1_" width="1040" height="500"/>
		</defs>
		<clipPath id="SVGID_2_">
			<use xlink:href="#SVGID_1_"  style="overflow:visible;"/>
		</clipPath>
		<g class="st1">
			<g>
				<g>
					<path class="st2" d="M431.21,120.29c-5.29,3.23-10.22,7.19-14.91,11.22c-10.44,9-19.82,19.42-26.96,31.24
						c-4.67,7.73-8.35,16.06-10.62,24.81c-0.09,0.33-0.17,1.16,0.16,1.4c0.33,0.24,0.52,0.01,0.61-0.37
						c3.91-15.1,12.11-28.72,22.27-40.44c7.25-8.36,15.52-15.89,24.49-22.38c1.69-1.22,3.4-2.43,5.18-3.52
						C431.99,121.93,431.76,119.95,431.21,120.29L431.21,120.29z"/>
				</g>
			</g>
			<g>
				<g>
					<path class="st2" d="M399.39,113.71c-2.73,3.13-4.95,6.8-6.92,10.43c-4.42,8.15-7.34,17.21-8.05,26.47
						c-0.49,6.4,0.07,12.81,1.67,19.02c0.05,0.18,0.23,0.65,0.51,0.47c3.65-2.39,7.45-4.57,11.27-6.66
						c7.5-4.1,15.32-7.91,23.54-10.31c4.09-1.2,8.4-2.11,12.68-1.78c0.6,0.05,0.66-1.99,0-2.04c-7.96-0.62-16.17,2.6-23.34,5.7
						c-7.03,3.04-13.81,6.68-20.37,10.63c-1.35,0.81-2.7,1.64-4.02,2.5c0.17,0.16,0.34,0.31,0.51,0.47
						c-4.44-17.3,0.38-35.6,10.55-49.97c0.77-1.08,1.56-2.17,2.43-3.17C400.22,115.03,399.94,113.08,399.39,113.71L399.39,113.71z"
						/>
				</g>
			</g>
			<g>
				
					<ellipse transform="matrix(0.4774 -0.8787 0.8787 0.4774 108.8984 411.188)" class="st3" cx="400.12" cy="114.05" rx="9.64" ry="11.6"/>
				<path class="st4" d="M392.43,108.01c-2.11,3.89-0.03,9.1,4.64,11.64c4.68,2.54,10.18,1.45,12.3-2.44
					c2.11-3.89,0.03-9.1-4.64-11.64C400.05,103.03,394.54,104.12,392.43,108.01z"/>
				<g>
					<path class="st3" d="M400.55,107.72c-0.52,0.43-0.26,2,0.59,3.5c0.85,1.5,1.95,2.38,2.48,1.95c0.52-0.43,0.26-2-0.59-3.5
						C402.18,108.16,401.07,107.29,400.55,107.72z"/>
					<path class="st3" d="M405.2,110.25c-0.08,0.67-1.53,1.3-3.26,1.41c-1.72,0.11-3.06-0.35-2.98-1.02
						c0.08-0.67,1.53-1.3,3.26-1.41C403.94,109.12,405.28,109.57,405.2,110.25z"/>
				</g>
			</g>
			<g>
				<path class="st3" d="M426.05,109.83c-4.38,3.04-4.96,9.76-1.31,15.03c3.65,5.26,10.16,7.07,14.54,4.03
					c4.38-3.04,4.96-9.76,1.31-15.03C436.93,108.6,430.42,106.79,426.05,109.83z"/>
				<path class="st4" d="M428.5,110.51c-3.64,2.52-4.12,8.12-1.09,12.49c3.04,4.37,8.44,5.87,12.08,3.35
					c3.64-2.52,4.12-8.12,1.09-12.49C437.55,109.49,432.14,107.99,428.5,110.51z"/>
				<g>
					<path class="st3" d="M435.88,113.9c-0.66,0.15-1.13,1.67-1.05,3.39c0.08,1.72,0.68,3,1.34,2.85c0.66-0.15,1.13-1.67,1.05-3.39
						C437.14,115.03,436.54,113.75,435.88,113.9z"/>
					<path class="st3" d="M438.9,118.25c-0.37,0.57-1.96,0.48-3.54-0.2c-1.59-0.68-2.57-1.68-2.2-2.25c0.37-0.57,1.96-0.48,3.54,0.2
						C438.28,116.67,439.27,117.68,438.9,118.25z"/>
				</g>
			</g>
			<g>
				
					<ellipse transform="matrix(0.9962 -0.0869 0.0869 0.9962 -11.412 38.0154)" class="st3" cx="431.1" cy="150.13" rx="9.64" ry="11.6"/>
				<path class="st4" d="M431.88,140.39c-4.41,0.38-7.61,5-7.15,10.3c0.46,5.3,4.41,9.29,8.82,8.91c4.41-0.38,7.61-5,7.15-10.3
					C440.24,143.99,436.29,140,431.88,140.39z"/>
				<g>
					<path class="st3" d="M436.61,147c-0.65-0.2-1.81,0.89-2.6,2.42c-0.79,1.54-0.9,2.94-0.26,3.14c0.65,0.2,1.81-0.89,2.6-2.42
						C437.14,148.6,437.25,147.2,436.61,147z"/>
					<path class="st3" d="M437.07,152.27c-0.6,0.31-1.93-0.56-2.98-1.93c-1.04-1.38-1.4-2.74-0.8-3.05c0.6-0.31,1.93,0.56,2.98,1.93
						C437.31,150.6,437.67,151.96,437.07,152.27z"/>
				</g>
			</g>
		</g>
		<g class="st1">
			<path class="st3" d="M344.71,124.08c0,0,5.5-25.68-9.49-42.72c-14.99-17.04-24.25-33.09-24.25-33.09S300.45,100.2,344.71,124.08z
				"/>
			<path class="st3" d="M346.29,153.41c0,0-8.63-24.8-30.29-31.59c-21.65-6.78-37.9-15.69-37.9-15.69S296.07,155.97,346.29,153.41z"
				/>
			<path class="st3" d="M357.86,142.84c0,0-10.92-23.88,0.03-43.76s16.52-37.55,16.52-37.55S395.9,109.95,357.86,142.84z"/>
			<g>
				<g>
					<path class="st2" d="M315.53,134.17c5.66,2.04,11.07,5.11,16.09,8.37c10.9,7.07,20.6,16.41,26.82,27.92
						c4.31,7.98,6.75,16.76,7.3,25.8c0.02,0.29,0.18,0.86,0.56,0.73c0.38-0.13,0.34-1,0.32-1.28c-0.96-15.65-7.59-30.14-18.29-41.53
						c-7.52-8.01-16.67-14.52-26.53-19.36c-1.97-0.97-3.98-1.91-6.04-2.66C315.1,131.92,314.96,133.97,315.53,134.17L315.53,134.17z
						"/>
				</g>
			</g>
			<g>
				<g>
					<path class="st2" d="M331.56,94.05c2.58,5.47,4.96,11.04,7.3,16.62c5.55,13.27,10.66,26.73,15.18,40.38
						c3.01,9.09,5.75,18.27,8.1,27.56c0.1,0.38,0.29,0.62,0.63,0.37c0.33-0.24,0.24-1.11,0.16-1.42
						c-4.07-16.05-9.27-31.81-15.07-47.31c-4.04-10.78-8.38-21.45-13.05-31.97c-0.85-1.91-1.7-3.82-2.59-5.7
						C331.73,91.57,331.3,93.52,331.56,94.05L331.56,94.05z"/>
				</g>
			</g>
			<g>
				<g>
					<path class="st2" d="M366.31,107.16c-1.67,4.24-3.05,8.6-4.33,12.96c-2.56,8.74-4.61,17.76-5.25,26.86
						c-0.35,4.99-0.28,10.04,0.76,14.94c0.08,0.38,0.3,0.61,0.63,0.37c0.34-0.24,0.23-1.1,0.16-1.42
						c-1.83-8.66-0.55-17.94,1.19-26.51c1.49-7.33,3.53-14.56,5.99-21.62c0.48-1.38,0.97-2.76,1.5-4.12c0.15-0.39,0.26-1.1,0-1.47
						C366.75,106.87,366.48,106.71,366.31,107.16L366.31,107.16z"/>
				</g>
			</g>
		</g>
		<g class="st1">
			<path class="st3" d="M138.46,313.95c0,0-26.05,3.3-37.18,23.08c-11.12,19.78-23.21,33.83-23.21,33.83
				S130.56,363.61,138.46,313.95z"/>
			<path class="st3" d="M165.63,302.76c0,0-20.55,16.35-19.8,39.03s-2.28,40.96-2.28,40.96S184.65,349.31,165.63,302.76z"/>
			<path class="st3" d="M151.82,295.33c0,0-18.93,18.2-41.31,14.44c-22.38-3.76-40.9-3.17-40.9-3.17S108.21,270.3,151.82,295.33z"/>
			<g>
				<g>
					<path class="st2" d="M157.11,338.36c0.02-1.74,0.14-3.06,0.35-4.98c0.45-4.3,1.21-8.56,2.24-12.75
						c3.11-12.61,8.79-24.74,17.62-34.36c6.13-6.67,13.68-11.86,22.03-15.37c0.57-0.24,0.41-2.28-0.24-2.01
						c-14.46,6.08-25.79,17.21-32.95,31.08c-5.07,9.82-8.15,20.7-9.45,31.66c-0.26,2.22-0.49,4.48-0.51,6.72
						C156.19,339.59,157.1,339.6,157.11,338.36L157.11,338.36z"/>
				</g>
			</g>
			<g>
				<g>
					<path class="st2" d="M113.91,337.12c4.33-4.27,8.83-8.37,13.35-12.44c10.7-9.63,21.73-18.9,33.13-27.69
						c7.57-5.83,15.32-11.44,23.29-16.72c0.54-0.36,0.29-2.36-0.24-2.01c-13.83,9.17-27.01,19.3-39.74,29.94
						c-8.8,7.36-17.41,14.96-25.76,22.83c-1.51,1.42-3.01,2.84-4.48,4.29C113.03,335.74,113.28,337.73,113.91,337.12L113.91,337.12z
						"/>
				</g>
			</g>
			<g>
				<g>
					<path class="st2" d="M115.95,299.64c4.39,0.17,8.81,0.04,13.19-0.18c8.96-0.45,17.99-1.46,26.67-3.78
						c4.75-1.27,9.44-2.94,13.66-5.5c0.55-0.33,0.31-2.34-0.24-2.01c-7.72,4.69-16.97,6.64-25.81,7.88
						c-7.59,1.07-15.27,1.54-22.93,1.57c-1.51,0.01-3.02,0-4.53-0.05C115.32,297.54,115.29,299.62,115.95,299.64L115.95,299.64z"/>
				</g>
			</g>
		</g>
		<g class="st1">
			<g>
				<path class="st5" d="M552.03,226.84c-12.81-93.23-106.56-82.47-131.15-35.86c-24.59-46.61-118.34-57.37-131.15,35.86
					c-10,72.78,71.42,132.51,110.72,156.81c12.51,7.74,28.34,7.74,40.86,0C480.61,359.36,562.03,299.62,552.03,226.84z"/>
				<path class="st6" d="M366.4,285.58c-16.45-3.92-38.37-5.33-55.03,2.35c21.43,40.31,65.48,71.74,90.73,87.36
					c11.57,7.15,26.2,7.15,37.77,0c24.06-14.88,65.19-44.13,87.56-81.73c-14.44,10.24-31.02,17.52-49.95,20.4
					C435.51,320.14,404.66,294.22,366.4,285.58z"/>
				<path class="st7" d="M311.3,287.81c0.02,0.04,0.04,0.08,0.06,0.12c16.66-7.69,38.58-6.27,55.03-2.35
					c38.26,8.64,69.12,34.56,111.08,28.39c18.92-2.88,35.5-10.16,49.95-20.4c0.21-0.36,0.41-0.73,0.62-1.09
					C517.51,278.75,357.25,246.3,311.3,287.81z"/>
				<g>
					<g>
						<path class="st8" d="M310.95,219.11c2.97-14.05,11.72-26.29,23.34-34.53c3.35-2.38,7.04-4.21,10.46-6.49
							c0.65-0.43,0.9-2.7-0.28-2.5c-3.75,0.61-6.95,2.33-10.11,4.39c-3.19,2.07-6.15,4.49-8.85,7.18
							c-5.42,5.39-9.84,11.8-12.8,18.85c-1.67,3.98-2.87,8.14-3.61,12.39C308.83,219.91,310.55,220.98,310.95,219.11L310.95,219.11z
							"/>
					</g>
				</g>
				<g>
					<g>
						<path class="st8" d="M347.01,175.96c0,0.01,0.01,0.02,0.01,0.03c0.06,0.17,0.16,0.31,0.29,0.43c0.12,0.1,0.25,0.15,0.4,0.15
							c0.15,0.02,0.3,0.06,0.45,0.06c0.19,0,0.44-0.1,0.64-0.16c0.29-0.08,0.58-0.17,0.86-0.26c0.29-0.09,0.57-0.2,0.85-0.32
							c0.36-0.15,0.68-0.44,0.99-0.68c0.06-0.08,0.13-0.16,0.19-0.24c0.1-0.15,0.16-0.31,0.19-0.48c0.08-0.31,0.1-0.65,0.03-0.96
							c-0.05-0.23-0.14-0.45-0.26-0.64c-0.12-0.18-0.44-0.47-0.69-0.41c-0.16,0.04-0.33,0.07-0.49,0.11
							c-0.16,0.03-0.32,0.05-0.47,0.11c-0.08,0.03-0.16,0.08-0.25,0.12c-0.31,0.15-0.61,0.31-0.92,0.47
							c-0.3,0.16-0.62,0.31-0.92,0.48c-0.24,0.14-0.4,0.31-0.59,0.5C346.88,174.72,346.79,175.39,347.01,175.96L347.01,175.96z"/>
					</g>
				</g>
				<g>
					<defs>
						<path id="SVGID_3_" d="M438.32,220.42c-2.27,0-5.57,0.84-8.81,1.89c-4.68,1.51-9.72,1.51-14.4,0
							c-3.24-1.05-6.54-1.89-8.81-1.89c-6.01,0-16.24,8.73-7.7,21.12c6.08,8.82,17.58,9.97,23.42,9.94c0.09,0,0.2,0,0.29,0
							c0.09,0,0.2,0,0.29,0c5.84,0.03,17.34-1.12,23.42-9.94C454.56,229.15,444.32,220.42,438.32,220.42z"/>
					</defs>
					<clipPath id="SVGID_4_">
						<use xlink:href="#SVGID_3_"  style="overflow:visible;"/>
					</clipPath>
					<path class="st9" d="M438.32,220.42c-2.27,0-5.57,0.84-8.81,1.89c-4.68,1.51-9.72,1.51-14.4,0c-3.24-1.05-6.54-1.89-8.81-1.89
						c-6.01,0-16.24,8.73-7.7,21.12c6.08,8.82,17.58,9.97,23.42,9.94c0.09,0,0.2,0,0.29,0c0.09,0,0.2,0,0.29,0
						c5.84,0.03,17.34-1.12,23.42-9.94C454.56,229.15,444.32,220.42,438.32,220.42z"/>
					<path class="st10" d="M406.38,249.64c0,0,14.19-19.58,31.89,0.11C438.27,249.75,424.53,261.52,406.38,249.64z"/>
				</g>
				<ellipse class="st11" cx="385.37" cy="222.6" rx="3.51" ry="8.38"/>
				
					<ellipse transform="matrix(0.7071 -0.7071 0.7071 0.7071 -61.8836 337.4727)" class="st12" cx="376.42" cy="243.44" rx="12.46" ry="12.46"/>
				<path class="st11" d="M460.11,222.6c0,4.63-1.57,8.38-3.51,8.38c-1.94,0-3.51-3.75-3.51-8.38c0-4.63,1.57-8.38,3.51-8.38
					C458.53,214.21,460.11,217.97,460.11,222.6z"/>
				
					<ellipse transform="matrix(0.2197 -0.9756 0.9756 0.2197 125.7875 644.1305)" class="st12" cx="465.53" cy="243.44" rx="12.46" ry="12.46"/>
				<path class="st7" d="M324.87,308.75c23.15,30.27,56.51,53.73,77.22,66.54c11.57,7.15,26.2,7.15,37.77,0
					c8.66-5.35,19.53-12.58,30.94-21.37C420.21,356.07,362.17,343.41,324.87,308.75z"/>
				<g>
					<g>
						<path class="st11" d="M288.62,247.96c1.76,18.8,9.06,36.56,19.1,52.4c10.26,16.18,23.27,30.51,37.35,43.43
							c12.76,11.72,26.53,22.34,40.86,32.06c2.98,2.02,6,4.01,9.03,5.95c3.49,2.23,6.96,4.56,10.8,6.16
							c10.33,4.3,22.21,3.97,32.28-0.93c4.35-2.12,8.42-4.99,12.46-7.64c4.5-2.95,8.93-5.98,13.31-9.1
							c10.03-7.16,19.73-14.79,28.96-22.97c2.42-2.15,4.8-4.33,7.15-6.55c0.49-0.46,0.56-1.26,0.47-1.9
							c-0.03-0.22-0.36-1.52-0.84-1.08c-16.8,15.87-35.4,29.82-54.92,42.16c-4.51,2.85-9.01,5.44-14.23,6.76
							c-5.32,1.35-10.93,1.55-16.34,0.59c-8.73-1.55-15.92-6.58-23.17-11.35c-13.77-9.06-27.03-18.94-39.47-29.77
							c-14.26-12.41-27.54-26.15-38.45-41.63c-10.69-15.16-19.2-32.32-22.22-50.76c-0.36-2.21-0.64-4.43-0.85-6.66
							c-0.04-0.4-0.26-1.32-0.84-1.08C288.54,246.3,288.58,247.52,288.62,247.96L288.62,247.96z"/>
					</g>
				</g>
			</g>
			<g>
				<defs>
					<path id="SVGID_5_" d="M438.32,220.42c-2.27,0-5.57,0.84-8.81,1.89c-4.68,1.51-9.72,1.51-14.4,0
						c-3.24-1.05-6.54-1.89-8.81-1.89c-6.01,0-16.24,8.73-7.7,21.12c6.08,8.82,17.58,9.97,23.42,9.94c0.09,0,0.2,0,0.29,0
						c0.09,0,0.2,0,0.29,0c5.84,0.03,17.34-1.12,23.42-9.94C454.56,229.15,444.32,220.42,438.32,220.42z"/>
				</defs>
				<clipPath id="SVGID_6_">
					<use xlink:href="#SVGID_5_"  style="overflow:visible;"/>
				</clipPath>
				<path class="st13" d="M438.32,220.42c-2.27,0-5.57,0.84-8.81,1.89c-4.68,1.51-9.72,1.51-14.4,0c-3.24-1.05-6.54-1.89-8.81-1.89
					c-6.01,0-16.24,8.73-7.7,21.12c6.08,8.82,17.58,9.97,23.42,9.94c0.09,0,0.2,0,0.29,0c0.09,0,0.2,0,0.29,0
					c5.84,0.03,17.34-1.12,23.42-9.94C454.56,229.15,444.32,220.42,438.32,220.42z"/>
				<path class="st14" d="M406.38,249.64c0,0,14.19-19.58,31.89,0.11C438.27,249.75,424.53,261.52,406.38,249.64z"/>
			</g>
			<ellipse class="st11" cx="385.37" cy="222.6" rx="3.51" ry="8.38"/>
			
				<ellipse transform="matrix(0.7071 -0.7071 0.7071 0.7071 -61.8836 337.4727)" class="st12" cx="376.42" cy="243.44" rx="12.46" ry="12.46"/>
			<path class="st11" d="M460.11,222.6c0,4.63-1.57,8.38-3.51,8.38c-1.94,0-3.51-3.75-3.51-8.38c0-4.63,1.57-8.38,3.51-8.38
				C458.53,214.21,460.11,217.97,460.11,222.6z"/>
			
				<ellipse transform="matrix(0.2197 -0.9756 0.9756 0.2197 125.7875 644.1305)" class="st12" cx="465.53" cy="243.44" rx="12.46" ry="12.46"/>
		</g>
		<g class="st1">
			<polygon class="st11" points="381.61,323.91 354.1,355.83 355.85,357.18 357.59,358.53 			"/>
			<g>
				<g>
					<path class="st15" d="M207.61,306.4c-2.24,8.14-3.81,16.47-4.38,24.91c-0.69,10.34-0.43,20.68,1.47,30.89
						c1.86,10.02,5.39,19.89,11.06,28.41c5.84,8.79,14.08,15.72,23.7,20.05c11.91,5.36,26.32,7.03,38.46,1.42
						c6.71-3.1,12.07-8.41,16.09-14.54c4.06-6.2,6.81-13.62,7.33-21.03c0.48-6.97-0.07-14.76-4.45-20.52
						c-3.18-4.19-8.37-8.46-14.03-7.5c-3.67,0.62-6.74,2.66-9.11,5.5c-2.48,2.98-4.48,6.29-5.51,10.05
						c-2.11,7.73-1.5,15.98,1.66,23.36c2.93,6.84,7.72,12.31,14.13,16.05c5.85,3.41,13,4.77,19.72,4.39
						c6.98-0.39,13.84-2.82,19.69-6.6c3.08-1.99,6.05-4.19,8.67-6.77c2.75-2.7,5.04-5.86,7.11-9.1c2.06-3.23,3.37-6.7,4.53-10.33
						c0.52-1.64,0.47-3.72-0.57-5.18c-0.79-1.12-2.33-1.67-3.42-0.59c-1.05,1.04-2.12,2.04-3.24,3c-1.21,1.03-2.2,2.27-3.31,3.42
						c-2.31,2.42-4.87,4.66-7.41,6.84c-1.28,1.1-2.62,2.1-3.99,3.09c-0.34,0.23-0.21,0.15,0.38-0.25c-0.21,0.14-0.43,0.28-0.65,0.42
						c-0.33,0.21-0.65,0.41-0.98,0.61c-0.72,0.43-1.45,0.85-2.19,1.24c-3.02,1.6-6.21,2.82-9.54,3.6c0.46-0.11,0.91-0.21,1.37-0.32
						c-5.01,1.13-10.18,1.42-15.25,0.56c0.46,0.08,0.93,0.17,1.39,0.25c-3.75-0.68-7.33-1.96-10.59-3.92
						c0.42,0.25,0.84,0.51,1.25,0.76c-1.53-0.95-2.98-2.02-4.29-3.26c-0.33-0.31-0.64-0.64-0.96-0.96
						c-0.76-0.77,1.02,1.23-0.05-0.07c-0.51-0.61-0.99-1.25-1.44-1.9c-0.52-0.75-0.95-1.55-1.44-2.33c1.11,1.77,0.44,0.82,0.21,0.34
						c-0.2-0.41-0.39-0.82-0.57-1.24c-0.34-0.79-0.62-1.59-0.9-2.39c-0.18-0.56-0.08-0.21,0.31,1.03c-0.06-0.22-0.12-0.44-0.18-0.65
						c-0.11-0.44-0.22-0.88-0.31-1.32c-0.09-0.44-0.17-0.88-0.24-1.33c-0.24-1.57,0.23,0.5,0.07,0.73c0.12-0.17-0.08-1.1-0.09-1.33
						c-0.02-0.44-0.02-0.88-0.02-1.33c0.03-1.91-0.19,1.71-0.04,0.41c0.04-0.33,0.07-0.65,0.11-0.98c0.06-0.43,0.15-0.86,0.22-1.29
						c0.21-1.22-0.59,2.02-0.07,0.27c0.22-0.73,0.57-1.42,0.78-2.15c-0.53,1.08-0.64,1.31-0.33,0.69c0.1-0.2,0.2-0.39,0.31-0.58
						c0.22-0.39,0.45-0.76,0.69-1.13c0.21-0.32,0.44-0.63,0.67-0.94c0.43-0.55,0.38-0.5-0.14,0.16c0.19-0.22,0.38-0.43,0.57-0.64
						c0.69-0.74,1.45-1.4,2.27-1.99c-0.4,0.27-0.8,0.54-1.19,0.81c0.95-0.64,1.94-1.12,3.05-1.41c-0.45,0.1-0.9,0.21-1.35,0.31
						c1.05-0.24,2.09-0.27,3.15-0.1c-0.45-0.08-0.91-0.16-1.36-0.24c1.19,0.23,2.28,0.67,3.32,1.28c-0.41-0.25-0.83-0.5-1.24-0.75
						c1.05,0.64,2,1.42,2.86,2.29c0.11,0.12,0.22,0.25,0.34,0.36c0.41,0.38-0.78-0.76-0.66-0.74c0.12,0.02,0.44,0.53,0.53,0.63
						c0.34,0.43,0.66,0.87,0.96,1.33c0.14,0.22,0.27,0.45,0.41,0.67c0.48,0.74-0.8-1.71-0.51-0.94c0.3,0.77,0.56,2.05-0.03-0.44
						c0.2,0.86,0.43,1.7,0.58,2.56c0.06,0.35,0.27,2,0.1,0.44c-0.17-1.57,0.01,0.3,0.03,0.64c0.05,0.87,0.06,1.75,0.03,2.62
						c-0.06,1.63,0.17-1.73,0.03-0.41c-0.05,0.5-0.1,1-0.17,1.49c-0.12,0.87-0.29,1.74-0.47,2.6c-0.26,1.24,0.48-1.76,0.06-0.24
						c-0.14,0.49-0.28,0.98-0.44,1.46c-0.27,0.85-0.58,1.69-0.92,2.52c-0.17,0.42-0.35,0.82-0.53,1.24
						c-0.45,1.04,0.26-0.51,0.29-0.57c-0.08,0.23-0.23,0.47-0.34,0.69c-0.87,1.72-1.87,3.37-2.98,4.95c-0.3,0.42-0.6,0.83-0.91,1.24
						c-0.12,0.15-0.24,0.3-0.35,0.46c-0.47,0.62,0.92-1.07,0.18-0.23c-0.67,0.77-1.34,1.53-2.06,2.26
						c-1.52,1.54-3.15,2.94-4.93,4.17c0.41-0.28,0.82-0.55,1.23-0.83c-3.36,2.25-7.09,3.78-11.03,4.69
						c0.46-0.11,0.92-0.21,1.37-0.32c-5.52,1.21-11.21,1.19-16.77,0.19c0.46,0.08,0.92,0.16,1.37,0.25
						c-6.37-1.19-12.55-3.58-18.09-6.93c0.41,0.25,0.82,0.5,1.24,0.75c-2.96-1.82-5.74-3.92-8.26-6.31
						c-0.59-0.56-1.17-1.14-1.74-1.73c-0.25-0.26-0.49-0.53-0.74-0.79c-0.63-0.67,0.53,0.59,0.51,0.57
						c-0.2-0.11-0.38-0.43-0.53-0.61c-1.08-1.26-2.09-2.57-3.04-3.93c-0.95-1.35-1.83-2.75-2.65-4.18
						c-0.18-0.31-0.35-0.62-0.52-0.93c-0.54-0.96,0.75,1.43,0.38,0.71c-0.1-0.2-0.21-0.39-0.31-0.59c-0.37-0.71-0.72-1.44-1.06-2.16
						c-0.7-1.5-1.33-3.03-1.91-4.58c-0.27-0.71-0.52-1.43-0.76-2.15c-0.14-0.43-0.28-0.85-0.42-1.28c-0.49-1.55,0.54,1.84,0.08,0.26
						c-0.92-3.16-1.64-6.38-2.18-9.63c-0.13-0.76-0.24-1.52-0.35-2.28c-0.06-0.45-0.12-0.89-0.18-1.34
						c-0.09-0.68-0.27-2.58,0.04,0.39c-0.17-1.61-0.32-3.23-0.42-4.85c-0.21-3.28-0.26-6.57-0.19-9.86c0.03-1.56,0.1-3.12,0.19-4.68
						c0.06-1.05-0.09,1.37-0.08,1.22c0.02-0.21,0.03-0.43,0.04-0.64c0.03-0.38,0.06-0.76,0.09-1.15c0.06-0.8,0.14-1.6,0.21-2.39
						c0.54-6.27,1.5-12.52,2.97-18.64c0.65-2.72-0.39-6.67-2.86-8.17C210.88,301.95,208.28,303.95,207.61,306.4L207.61,306.4z"/>
				</g>
			</g>
			<g>
				<g>
					<path class="st16" d="M209.63,308.11c-2.1,7.89-3.48,15.97-4.01,24.13c-0.63,9.65-0.33,19.37,1.46,28.89
						c1.77,9.43,5.05,18.71,10.4,26.72c5.57,8.35,13.41,14.93,22.57,19.04c11.5,5.16,25.36,6.83,37.09,1.38
						c12.22-5.67,20.78-19.45,21.69-32.74c0.39-5.7-0.12-12.03-3.69-16.74c-2.77-3.66-7.28-7.28-12.19-6.42
						c-6.36,1.11-10.89,7.7-12.48,13.57c-1.73,6.44-1.04,13.34,1.59,19.44c2.6,6.03,6.9,10.96,12.57,14.26
						c5.68,3.3,12.51,4.6,19.02,4.22c14.03-0.81,26.12-9.57,33.98-20.78c1.99-2.84,3.49-5.92,4.87-9.09
						c0.62-1.43-0.78-4.51-2.27-2.54c-3.62,4.79-7.64,9.36-12.09,13.4c-4.53,4.11-9.72,7.43-15.56,9.35
						c-5.56,1.82-11.82,2.36-17.58,1.24c-2.97-0.58-5.87-1.61-8.53-3.05c-1.22-0.66-2.37-1.45-3.45-2.32
						c-0.88-0.71-2.15-1.92-2.62-2.45c-0.9-1.02-1.71-2.13-2.44-3.28c-0.81-1.28-1.01-1.67-1.65-3.16
						c-0.27-0.63-0.51-1.27-0.73-1.91c-0.03-0.07-0.35-1.15-0.13-0.38c-0.08-0.27-0.15-0.54-0.22-0.82
						c-0.15-0.6-0.28-1.21-0.39-1.82c-0.06-0.33-0.1-0.66-0.16-1c-0.06-0.45-0.06-0.44,0,0.03c-0.02-0.22-0.04-0.44-0.05-0.67
						c-0.04-0.66-0.06-1.33-0.05-1.99c0-0.14,0.08-1.24,0-0.29c0.02-0.22,0.04-0.44,0.06-0.66c0.07-0.65,0.2-1.29,0.31-1.94
						c0.18-1.04-0.23,0.67,0.08-0.34c0.13-0.42,0.25-0.83,0.4-1.25c0.48-1.35,0.58-1.54,1.35-2.75c0.88-1.38,1.94-2.63,3.2-3.68
						c0.78-0.65,1.71-1.16,2.76-1.5c0.25-0.08,0.64-0.17,1.21-0.2c0.26-0.02,0.52-0.02,0.79-0.01c0.1,0,1.08,0.13,0.59,0.03
						c0.92,0.17,1.79,0.54,2.62,0.98c0.73,0.38-0.43-0.31,0.26,0.15c0.21,0.14,0.42,0.29,0.63,0.44c0.48,0.35,0.93,0.74,1.36,1.14
						c0.17,0.16,1.15,1.22,0.66,0.64c0.25,0.3,0.5,0.59,0.74,0.9c0.26,0.34,0.51,0.7,0.75,1.06c0.11,0.17,0.21,0.34,0.32,0.51
						c0.49,0.77-0.18-0.49,0.01,0.01c0.09,0.23,0.2,0.47,0.31,0.7c0.1,0.21,0.13,0.66-0.05-0.2c0.08,0.37,0.2,0.73,0.28,1.09
						c0.17,0.73,0.29,1.47,0.42,2.21c0.21,1.19-0.04-0.76,0.06,0.45c0.04,0.5,0.08,0.99,0.1,1.49c0.1,2.6-0.25,5.35-0.9,7.69
						c-0.84,3-1.92,5.5-3.37,7.99c-2.88,4.94-6.84,9.47-11.93,12.33c-10.37,5.82-22.97,4.95-33.76,0.79
						c-4.55-1.75-8.37-3.81-12.08-6.61c-1.77-1.34-3.45-2.79-5.02-4.36c-0.39-0.38-0.77-0.78-1.14-1.17c-0.19-0.2-0.37-0.4-0.55-0.6
						c-0.61-0.66,0.39,0.46-0.19-0.22c-0.7-0.82-1.39-1.65-2.05-2.51c-1.3-1.7-2.5-3.49-3.59-5.33c-0.27-0.46-0.53-0.93-0.8-1.39
						c-0.44-0.79,0.32,0.62-0.1-0.18c-0.12-0.24-0.25-0.47-0.37-0.71c-0.49-0.95-0.95-1.92-1.39-2.9c-0.88-1.96-1.65-3.97-2.33-6.01
						c-0.17-0.51-0.33-1.02-0.5-1.54c-0.28-0.88,0.22,0.76-0.04-0.13c-0.05-0.17-0.1-0.35-0.15-0.52c-0.32-1.13-0.62-2.26-0.89-3.4
						c-0.5-2.11-0.92-4.24-1.27-6.38c-0.16-0.98-0.3-1.97-0.43-2.95c-0.03-0.27-0.07-0.54-0.1-0.81c-0.12-0.94,0.09,0.86-0.01-0.08
						c-0.07-0.63-0.13-1.26-0.19-1.89c-0.38-4.26-0.5-8.54-0.4-12.82c0.02-0.96,0.06-1.92,0.1-2.87c0.02-0.52,0.05-1.03,0.08-1.55
						c0.05-0.91-0.06,0.87,0-0.03c0.02-0.34,0.05-0.68,0.07-1.02c0.15-2,0.34-4,0.57-6c0.42-3.67,0.99-7.32,1.73-10.94
						c0.33-1.61,0.69-3.21,1.09-4.81c0.32-1.3-0.18-3.4-1.43-4.08C211.25,305.95,209.97,306.83,209.63,308.11L209.63,308.11z"/>
				</g>
			</g>
			<g>
				<g>
					<path class="st6" d="M210.64,308.97c-2.03,7.77-3.31,15.73-3.83,23.74c-0.6,9.27-0.28,18.62,1.42,27.76
						c1.71,9.18,4.89,18.21,10.1,26.01c5.41,8.09,12.99,14.47,21.87,18.47c11.28,5.08,24.84,6.79,36.37,1.51
						c11.74-5.38,20.06-18.47,20.98-31.22c0.37-5.08-0.08-10.74-3.22-14.94c-2.52-3.38-6.58-6.63-11.07-6.02
						c-5.91,0.81-10.16,7.12-11.63,12.47c-1.58,5.72-0.89,11.88,1.37,17.33c2.35,5.63,6.35,10.36,11.59,13.48
						c5.62,3.35,12.32,4.69,18.81,4.34c13.58-0.73,25.28-8.99,33.19-19.63c2-2.69,3.67-5.57,5.18-8.57
						c0.37-0.73-0.28-2.62-1.03-1.49c-6.77,10.24-15.85,19.92-27.78,23.89c-11.18,3.73-25.31,2.2-33.45-7.06
						c-7-7.96-9.24-21.49-0.24-28.95c3.66-3.03,7.98-2.23,11.32,0.81c3.15,2.87,4.22,6.03,4.44,10.32
						c0.6,11.78-6.72,24.43-16.92,30.23c-10.59,6.02-23.58,5.13-34.61,0.87c-8.42-3.25-15.91-8.6-21.43-15.76
						c-5.19-6.73-8.58-14.67-10.57-22.91c-3.81-15.77-3.14-32.67,0.13-48.48c0.31-1.48,0.67-3.11,1.02-4.49
						c0.19-0.76,0.23-1.83-0.47-2.38C211.58,307.82,210.82,308.27,210.64,308.97L210.64,308.97z"/>
				</g>
			</g>
			<path class="st15" d="M266.39,101.76c-66.72-34.26-117.21,0-117.21,0l-0.06,0.11c-33.06,80.55,0,189.34,0,189.34
				c66.72,34.26,117.21,0,117.21,0l0.06-0.11C299.45,210.55,266.39,101.76,266.39,101.76z"/>
			<path class="st16" d="M262.44,107.4c-62.23-31.96-109.32,0-109.32,0l-0.06,0.11c-30.83,75.12,0,176.59,0,176.59
				c62.23,31.96,109.32,0,109.32,0l0.06-0.11C293.27,208.87,262.44,107.4,262.44,107.4z"/>
			<path class="st6" d="M220.17,196.66c-2.36,1.38-4.63,2.91-6.9,4.42c-8.15,5.39-18.27,5.22-27.67,2.87
				c-15.14-3.29-30.8-10.18-46.17-8.63C140.78,243.87,153,284.1,153,284.1c62.23,31.96,109.32,0,109.32,0l0.06-0.11
				c13.04-31.77,15.05-68.25,13.03-99.77C258.05,180.66,241.44,184.19,220.17,196.66z"/>
			<rect x="172.29" y="124.48" class="st8" width="70.93" height="42.48"/>
			<g>
				<defs>
					<path id="SVGID_7_" d="M213.84,142.45c-0.89,0-2.19,0.33-3.46,0.74c-1.84,0.59-3.82,0.59-5.65,0
						c-1.27-0.41-2.57-0.74-3.46-0.74c-2.36,0-6.37,3.43-3.02,8.29c2.39,3.46,6.9,3.91,9.19,3.9c0.04,0,0.08,0,0.11,0
						c0.04,0,0.08,0,0.11,0c2.29,0.01,6.81-0.44,9.19-3.9C220.21,145.88,216.2,142.45,213.84,142.45z"/>
				</defs>
				<clipPath id="SVGID_8_">
					<use xlink:href="#SVGID_7_"  style="overflow:visible;"/>
				</clipPath>
				<path class="st17" d="M213.84,142.45c-0.89,0-2.19,0.33-3.46,0.74c-1.84,0.59-3.82,0.59-5.65,0c-1.27-0.41-2.57-0.74-3.46-0.74
					c-2.36,0-6.37,3.43-3.02,8.29c2.39,3.46,6.9,3.91,9.19,3.9c0.04,0,0.08,0,0.11,0c0.04,0,0.08,0,0.11,0
					c2.29,0.01,6.81-0.44,9.19-3.9C220.21,145.88,216.2,142.45,213.84,142.45z"/>
				<path class="st18" d="M201.3,153.92c0,0,5.57-7.68,12.52,0.04C213.82,153.96,208.43,158.58,201.3,153.92z"/>
			</g>
			<path class="st11" d="M191.68,143.3c0,1.82,0.62,3.29,1.38,3.29c0.76,0,1.38-1.47,1.38-3.29c0-1.82-0.62-3.29-1.38-3.29
				C192.29,140.01,191.68,141.49,191.68,143.3z"/>
			<path class="st12" d="M184.66,151.48c0,2.7,2.19,4.89,4.89,4.89s4.89-2.19,4.89-4.89s-2.19-4.89-4.89-4.89
				S184.66,148.78,184.66,151.48z"/>
			<path class="st11" d="M222.39,143.3c0,1.82-0.62,3.29-1.38,3.29c-0.76,0-1.38-1.47-1.38-3.29c0-1.82,0.62-3.29,1.38-3.29
				C221.77,140.01,222.39,141.49,222.39,143.3z"/>
			<path class="st12" d="M229.41,151.48c0,2.7-2.19,4.89-4.89,4.89c-2.7,0-4.89-2.19-4.89-4.89s2.19-4.89,4.89-4.89
				C227.22,146.6,229.41,148.78,229.41,151.48z"/>
			<path class="st15" d="M221.2,68.66c-8.86-1.87-18.04-1.87-26.9,0c-30.22,6.37-21.82,26.57-21.82,26.57l35.27-6.01l35.27,6.01
				C243.02,95.23,251.42,75.03,221.2,68.66z M207.75,78.8c-2.1,0-3.81-1.7-3.81-3.81c0-2.1,1.7-3.81,3.81-3.81
				c2.1,0,3.81,1.7,3.81,3.81C211.56,77.09,209.85,78.8,207.75,78.8z"/>
			<path class="st15" d="M207.38,314.87h7.96c7.18,0,13-5.82,13-13v-2.48h-33.96v2.48C194.38,309.05,200.2,314.87,207.38,314.87z"/>
			<path class="st6" d="M333.14,381.66l4.25,3.29c2.75,2.13,6.71,1.63,8.84-1.12l14.41-18.61c2.13-2.75,1.63-6.71-1.12-8.84
				l-4.25-3.29c-2.75-2.13-6.71-1.63-8.84,1.12l-14.41,18.61C329.88,375.57,330.38,379.53,333.14,381.66z"/>
			<path class="st19" d="M262.44,107.4c-62.23-31.96-109.32,0-109.32,0l-0.06,0.11c-11.42,27.82-14.38,59.25-13.58,87.81
				c0,0,2.33-68.44,17.18-86.47C156.66,108.85,202.47,86.42,262.44,107.4z"/>
			<path class="st7" d="M158.66,238.52c-8-6.61-13.85-14.51-18.07-23.18C144,254.45,153,284.1,153,284.1
				c62.23,31.96,109.32,0,109.32,0l0.06-0.11c2.37-5.78,4.38-11.72,6.06-17.76C231.39,274.12,188.47,262.14,158.66,238.52z"/>
			<g>
				<g>
					<path class="st8" d="M148.04,207.77c0.37,5.91,1,11.81,1.97,17.65c0.49,2.91,1.07,5.81,1.71,8.69
						c0.63,2.83,1.18,5.86,2.34,8.54c0.53,1.23,1.39-0.04,1.26-0.86c-0.42-2.83-1.35-5.61-2-8.4c-0.65-2.79-1.23-5.6-1.75-8.42
						c-1.05-5.71-1.86-11.44-2.35-17.23C149.13,206.65,147.97,206.64,148.04,207.77L148.04,207.77z"/>
				</g>
			</g>
			<g>
				<g>
					<path class="st8" d="M154.7,246.19c0.34,1.18,0.68,2.36,1.05,3.53c0.17,0.54,0.33,1.08,0.55,1.61
						c0.14,0.34,0.28,0.66,0.54,0.93c0.14,0.14,0.31,0.37,0.51,0.41c0.26,0.05,0.41-0.09,0.5-0.33c0.11-0.29,0.09-0.62,0.1-0.93
						c0.01-0.36-0.05-0.69-0.14-1.03c-0.17-0.64-0.38-1.25-0.61-1.87c-0.39-1.07-0.81-2.13-1.23-3.18c-0.14-0.36-0.53-0.68-0.9-0.42
						C154.7,245.15,154.58,245.78,154.7,246.19L154.7,246.19z"/>
				</g>
			</g>
			<g>
				<g>
					<path class="st11" d="M173.3,91.86c5.89-1.71,11.87-3.15,17.93-4.08c2.9-0.45,5.81-0.78,8.73-0.99
						c3.07-0.22,6.19-0.21,9.25-0.58c0.25-0.03,0.22-0.51-0.01-0.54c-3.05-0.43-6.2-0.25-9.26-0.04c-3.08,0.21-6.15,0.56-9.2,1.03
						c-6,0.93-11.89,2.37-17.58,4.47C172.86,91.24,172.95,91.96,173.3,91.86L173.3,91.86z"/>
				</g>
			</g>
			<g>
				<g>
					<path class="st11" d="M213.82,86.4c1.2-0.03,2.4,0.09,3.58,0.29c0.6,0.1,1.2,0.25,1.78,0.42c0.52,0.15,1.11,0.32,1.65,0.34
						c0.23,0.01,0.2-0.41,0.08-0.51c-0.94-0.78-2.24-1.04-3.41-1.24c-1.22-0.21-2.47-0.22-3.7-0.09
						C213.45,85.65,213.47,86.41,213.82,86.4L213.82,86.4z"/>
				</g>
			</g>
		</g>
		
			<ellipse transform="matrix(0.7071 -0.7071 0.7071 0.7071 -125.4247 63.0157)" class="st20" cx="13.35" cy="182.91" rx="86.06" ry="86.06"/>
		
			<ellipse transform="matrix(0.7071 -0.7071 0.7071 0.7071 -332.0085 162.1943)" class="st21" cx="29.78" cy="481.87" rx="86.06" ry="86.06"/>
		
			<ellipse transform="matrix(0.7071 -0.7071 0.7071 0.7071 -171.0821 520.4148)" class="st22" cx="542.66" cy="466.72" rx="86.06" ry="86.06"/>
		
			<ellipse transform="matrix(0.7071 -0.7071 0.7071 0.7071 107.8761 816.1218)" class="st23" cx="1039.08" cy="277.84" rx="86.06" ry="86.06"/>
		
			<ellipse transform="matrix(0.7071 -0.7071 0.7071 0.7071 258.4937 672.7877)" class="st22" cx="941.37" cy="24.36" rx="86.06" ry="86.06"/>
		
			<ellipse transform="matrix(0.2262 -0.9741 0.9741 0.2262 51.9222 94.0683)" class="st21" cx="85.17" cy="14.35" rx="60.64" ry="60.64"/>
		<circle class="st22" cx="520" cy="30.86" r="60.64"/>
		<circle class="st23" cx="274.51" cy="500" r="60.64"/>
		<circle class="st21" cx="271.39" cy="42.25" r="17.89"/>
		<circle class="st21" cx="698.76" cy="60.14" r="17.89"/>
		<circle class="st21" cx="959.26" cy="442.58" r="17.89"/>
		<circle class="st20" cx="385.37" cy="451.04" r="17.89"/>
		<g class="st1">
			<rect x="486.1" y="103.41" class="st8" width="9.55" height="30.8"/>
			
				<rect x="486.1" y="103.41" transform="matrix(-1.836970e-16 1 -1 -1.836970e-16 609.6924 -372.0676)" class="st8" width="9.55" height="30.8"/>
		</g>
		<g class="st1">
			<rect x="178.77" y="392.31" class="st8" width="9.55" height="30.8"/>
			
				<rect x="178.77" y="392.31" transform="matrix(-1.836970e-16 1 -1 -1.836970e-16 591.2552 224.1605)" class="st8" width="9.55" height="30.8"/>
		</g>
		<circle class="st24" cx="458.44" cy="140.18" r="5.36"/>
		<circle class="st24" cx="217.32" cy="439.36" r="5.36"/>
		<circle class="st25" cx="522.6" cy="131.64" r="5.36"/>
		<circle class="st25" cx="125.13" cy="402.93" r="5.36"/>
	</g>
</g>
<g id="TEXTS">
</g>
</svg>
