<?xml version="1.0" encoding="utf-8"?>
<!-- Generator: Adobe Illustrator 24.3.0, SVG Export Plug-In . SVG Version: 6.00 Build 0)  -->
<svg version="1.1" xmlns="http://www.w3.org/2000/svg" xmlns:xlink="http://www.w3.org/1999/xlink" x="0px" y="0px"
	 viewBox="0 0 1040 500" style="enable-background:new 0 0 1040 500;" xml:space="preserve">
<style type="text/css">
	.st0{clip-path:url(#XMLID_2_);fill:#E1E1E1;}
	.st1{clip-path:url(#XMLID_2_);fill:#F4F4F4;}
	.st2{clip-path:url(#XMLID_2_);}
	.st3{fill:#2E4246;}
	.st4{fill:#E1E1E1;}
	.st5{fill:#B3BBBC;}
	.st6{fill:#F16954;}
	.st7{fill:#FFFFFF;}
	.st8{fill:#F4F4F4;}
	.st9{fill:#C0463B;}
	.st10{opacity:0.36;}
	.st11{fill:#FF9999;}
	.st12{fill:#A60019;}
	.st13{fill:#363636;}
	.st14{fill:#415C65;}
	.st15{opacity:0.18;fill:#253339;}
	.st16{fill:#F7BBB8;}
	.st17{opacity:0.46;fill:#EE8C8D;}
	.st18{fill:#EAA32F;}
	.st19{fill:#F6B233;}
	.st20{fill:#EDB99A;}
	.st21{opacity:0.17;fill:#363636;}
	.st22{opacity:0.21;fill:#363636;}
	.st23{fill:#EAE8E8;}
</style>
<g id="BACKGROUND">
</g>
<g id="OBJECTS">
	<g>
		<defs>
			<rect id="XMLID_3_" x="0" y="0" width="1040" height="500"/>
		</defs>
		<clipPath id="XMLID_2_">
			<use xlink:href="#XMLID_3_"  style="overflow:visible;"/>
		</clipPath>
		<ellipse class="st0" cx="770.75" cy="471.83" rx="231.74" ry="46.97"/>
		<path class="st1" d="M-45.97,522.65V350.28c1.92-4.38,4.09-8.75,6.57-13.12c12.08-21.29,28.69-27.47,52.75-22.78
			c16.59,3.24,32.17,12.32,42.25,26.02c14.23,19.35,17.14,44.43,23.73,67.52c6.59,23.1,20.15,47.49,43.5,53.11
			c19.98,4.8,40.17-5.78,57.63-16.61c17.47-10.83,36.31-22.77,56.78-20.92c18.59,1.68,34.49,14.82,44.78,30.39
			c13.3,20.14,18.44,44.68,16.33,68.76H-45.97z"/>
		<g class="st2">
			<path class="st3" d="M585.87,454.53c0,8.1,36.32,14.67,81.12,14.67c44.8,0,81.12-6.57,81.12-14.67
				c0-8.11-36.32-14.68-81.12-14.68C622.19,439.86,585.87,446.43,585.87,454.53z"/>
			<polygon class="st3" points="674.41,451.72 659.58,451.72 664.52,51.08 674.41,51.08 			"/>
			<path class="st4" d="M639.3,72.03h-61.72c0,0-10.73,83.18,30.86,83.18C650.03,155.21,639.3,72.03,639.3,72.03z"/>
			<path class="st5" d="M608.44,155.21c-0.99,0-1.93-0.05-2.85-0.14c22.69-16.14,24.13-63.75,23.75-83.04h9.96
				C639.3,72.03,650.03,155.21,608.44,155.21z"/>
			<path class="st6" d="M631.98,112.35c-1.73,16.06-7.42,32.56-23.49,32.56c-16.47,0-22.03-17.34-23.61-33.77L631.98,112.35z"/>
			<polygon class="st7" points="587.23,100.93 629.64,100.93 631.92,89.4 584.96,89.4 			"/>
			<path class="st4" d="M600.37,76.67l16.14,0.41c-0.54-5.63-3.18-14.58-8.09-14.58C603.51,62.51,600.96,71.17,600.37,76.67z
				 M606.03,70.03c0-1.37,1.11-2.47,2.47-2.47c1.37,0,2.47,1.11,2.47,2.47c0,1.36-1.11,2.47-2.47,2.47
				C607.13,72.5,606.03,71.4,606.03,70.03z"/>
			<polygon class="st3" points="594.39,59.32 733.31,59.65 733.31,46.47 594.39,51.08 			"/>
			<path class="st8" d="M608.79,50.86c-0.02-0.98,1.5-0.89,1.51,0.08c0.09,5.71-0.23,11.41-0.95,17.07
				c-0.12,0.96-1.64,0.89-1.51-0.08C608.56,62.26,608.87,56.56,608.79,50.86z"/>
			<path class="st9" d="M631.99,112.35c-1.73,16.05-7.42,32.56-23.49,32.56c-5.84,0-10.3-2.17-13.71-5.72
				C618.84,141.99,631.99,112.35,631.99,112.35z"/>
			<g class="st10">
				<path class="st11" d="M603.72,115.51c-2.38-0.32-2.88,3.38-0.49,3.7C605.61,119.53,606.1,115.83,603.72,115.51z"/>
				<path class="st11" d="M614.1,119.25c-2.38-0.32-2.88,3.38-0.49,3.7C615.99,123.27,616.48,119.57,614.1,119.25z"/>
				<path class="st11" d="M592.26,119.25c-2.38-0.32-2.88,3.38-0.49,3.7C594.15,123.27,594.65,119.57,592.26,119.25z"/>
				<path class="st11" d="M626.85,117.38c-2.38-0.32-2.88,3.38-0.49,3.7C628.73,121.4,629.23,117.7,626.85,117.38z"/>
				<path class="st11" d="M600.1,133.18c-2.38-0.32-2.88,3.38-0.49,3.7C601.99,137.2,602.49,133.5,600.1,133.18z"/>
				<path class="st11" d="M612.29,136.92c-2.38-0.32-2.88,3.38-0.49,3.7C614.18,140.94,614.68,137.24,612.29,136.92z"/>
			</g>
		</g>
		<path class="st1" d="M22.63,224.74c17.41,4.56,36.53,4.2,52.76-3.56c16.24-7.76,29.05-23.54,30.81-41.45
			c3.49-35.52-34.33-66.55-27.54-101.58c3.44-17.74,19.52-32.26,37.52-33.87c30.4-2.72,55.17,26.93,85.61,29.16
			c28.88,2.11,54.75-22.75,61.51-50.91c3.03-12.62,2.95-25.79,0.76-38.54c-0.24-1.42-0.52-2.83-0.8-4.22H-27.84v214.42
			C-13.95,208.67,3.21,219.65,22.63,224.74z"/>
		<g class="st2">
			<path class="st6" d="M81.94,27.16c-0.12-1.32-1.74-2.38-3.78-2.46c-3.81-0.16-7.57-0.25-11.3-0.32c-0.02-3.97-0.1-7.78-0.24-11.4
				c-0.08-2.04-1.12-3.7-2.44-3.82c-2.04-0.18-4.17-0.14-6.38,0.06c-1.32,0.12-2.38,1.74-2.46,3.78c-0.16,3.83-0.26,7.6-0.32,11.35
				c-3.81,0.05-7.59,0.14-11.29,0.31c-2.02,0.09-3.65,1.11-3.8,2.41c-0.26,2.25-0.32,4.4-0.1,6.41c0.15,1.33,1.84,2.36,3.91,2.42
				c3.83,0.1,7.59,0.18,11.27,0.23c0.05,3.81,0.14,7.58,0.31,11.29c0.09,2.02,1.11,3.65,2.41,3.8c2.25,0.26,4.4,0.32,6.41,0.1
				c1.33-0.15,2.36-1.84,2.42-3.91c0.1-3.82,0.18-7.56,0.23-11.22c3.96-0.02,7.78-0.1,11.39-0.24c2.04-0.08,3.7-1.12,3.82-2.44
				C82.19,31.51,82.14,29.37,81.94,27.16z"/>
			<path class="st6" d="M1030.59,27.13c-0.12-1.33-1.76-2.4-3.83-2.49c-3.86-0.16-7.66-0.26-11.43-0.32
				c-0.02-4.01-0.1-7.87-0.24-11.52c-0.08-2.06-1.13-3.74-2.46-3.86c-2.06-0.19-4.22-0.14-6.45,0.06c-1.33,0.12-2.4,1.76-2.49,3.83
				c-0.16,3.87-0.26,7.69-0.32,11.48c-3.85,0.05-7.67,0.14-11.42,0.32c-2.04,0.1-3.69,1.13-3.84,2.44c-0.26,2.28-0.32,4.45-0.1,6.48
				c0.15,1.34,1.86,2.39,3.95,2.44c3.88,0.1,7.67,0.18,11.39,0.24c0.05,3.85,0.14,7.67,0.32,11.42c0.1,2.04,1.13,3.69,2.44,3.84
				c2.28,0.26,4.45,0.32,6.48,0.1c1.34-0.15,2.39-1.86,2.44-3.95c0.1-3.86,0.18-7.64,0.24-11.35c4.01-0.03,7.87-0.1,11.52-0.24
				c2.06-0.08,3.74-1.13,3.86-2.46C1030.83,31.52,1030.78,29.36,1030.59,27.13z"/>
			<path class="st12" d="M569.89,475.38c-0.1-1.16-1.54-2.1-3.34-2.18c-3.37-0.14-6.69-0.23-9.99-0.28
				c-0.02-3.5-0.09-6.88-0.21-10.07c-0.07-1.8-0.99-3.27-2.15-3.37c-1.8-0.16-3.69-0.12-5.64,0.05c-1.16,0.1-2.1,1.54-2.18,3.34
				c-0.14,3.39-0.23,6.72-0.28,10.03c-3.37,0.05-6.7,0.13-9.98,0.28c-1.78,0.08-3.23,0.98-3.36,2.13c-0.23,1.99-0.28,3.89-0.09,5.66
				c0.13,1.17,1.63,2.09,3.45,2.14c3.39,0.09,6.71,0.16,9.96,0.21c0.05,3.36,0.13,6.7,0.28,9.98c0.08,1.78,0.98,3.23,2.13,3.36
				c1.99,0.23,3.89,0.28,5.66,0.09c1.17-0.13,2.09-1.63,2.14-3.45c0.09-3.37,0.16-6.68,0.21-9.92c3.5-0.02,6.88-0.09,10.07-0.21
				c1.8-0.07,3.27-0.99,3.37-2.15C570.11,479.22,570.07,477.33,569.89,475.38z"/>
			<path class="st6" d="M816.25,115.48c-1.82,0-3.76-0.12-5.85-0.36c-2.83-0.32-5.01-3.42-5.19-7.36
				c-0.21-4.49-0.35-9.29-0.44-15.01c-4.89-0.08-9.87-0.19-14.94-0.32c-4.05-0.11-7.22-2.3-7.55-5.21c-0.33-2.94-0.28-6.18,0.14-9.9
				c0.32-2.83,3.42-5.01,7.36-5.19c4.47-0.21,9.28-0.35,15.02-0.44c0.09-4.98,0.22-10,0.44-15.09c0.17-4,2.41-7.09,5.31-7.35
				c3.65-0.33,6.84-0.36,9.78-0.09c2.9,0.26,5.11,3.37,5.27,7.4c0.17,4.66,0.29,9.63,0.33,15.16c4.96,0.09,9.95,0.22,15.01,0.44
				c3.99,0.17,7.08,2.4,7.35,5.31v0c0.32,3.64,0.36,6.84,0.09,9.78c-0.26,2.9-3.38,5.12-7.4,5.27c-4.63,0.18-9.6,0.29-15.15,0.34
				c-0.07,4.86-0.19,9.81-0.32,14.86c-0.11,4.05-2.3,7.23-5.21,7.55C819,115.41,817.66,115.48,816.25,115.48z M816.2,52.64
				c-1.66,0-3.43,0.09-5.34,0.26c-0.75,0.07-1.88,1.48-1.98,3.86c-0.24,5.66-0.38,11.23-0.47,16.76l-0.03,1.77l-1.77,0.02
				c-6.5,0.09-11.8,0.24-16.67,0.46c-2.38,0.11-3.82,1.23-3.9,1.96c-0.4,3.44-0.44,6.41-0.14,9.08c0.09,0.77,1.66,1.89,4.02,1.96
				c5.67,0.15,11.22,0.27,16.67,0.35l1.78,0.03l0.03,1.78c0.09,6.47,0.23,11.76,0.46,16.66c0.11,2.38,1.23,3.82,1.96,3.9
				c3.44,0.39,6.4,0.44,9.08,0.14c0.77-0.09,1.9-1.66,1.96-4.02c0.15-5.65,0.27-11.18,0.35-16.6l0.02-1.79l1.79-0.01
				c6.24-0.04,11.74-0.15,16.82-0.35c2.32-0.09,3.84-1.2,3.9-1.95c0.24-2.71,0.21-5.7-0.09-9.12c-0.07-0.75-1.48-1.88-3.86-1.98
				c-5.64-0.24-11.19-0.37-16.71-0.47l-1.78-0.03l-0.01-1.79c-0.04-6.2-0.15-11.71-0.35-16.82c-0.09-2.32-1.19-3.83-1.94-3.9
				C818.79,52.69,817.53,52.64,816.2,52.64z"/>
			<path class="st6" d="M61.85,283.9c-1.82,0-3.76-0.12-5.85-0.36c-2.83-0.32-5.01-3.42-5.19-7.36c-0.21-4.44-0.35-9.25-0.44-15.01
				c-4.89-0.08-9.87-0.19-14.94-0.32c-4.05-0.11-7.22-2.3-7.55-5.21c-0.33-2.96-0.28-6.2,0.14-9.9c0.32-2.82,3.42-5.01,7.36-5.19
				c4.46-0.21,9.28-0.35,15.02-0.44c0.09-4.98,0.22-10,0.44-15.09c0.17-4,2.41-7.09,5.31-7.35c3.65-0.33,6.84-0.36,9.77-0.09
				c2.9,0.26,5.12,3.37,5.27,7.4c0.17,4.66,0.29,9.63,0.33,15.16c4.96,0.09,9.95,0.22,15.01,0.44c3.99,0.17,7.08,2.4,7.35,5.31v0
				c0.32,3.64,0.36,6.84,0.09,9.78c-0.26,2.9-3.38,5.12-7.4,5.27c-4.63,0.18-9.6,0.29-15.15,0.34c-0.07,4.86-0.19,9.81-0.32,14.86
				c-0.11,4.05-2.31,7.23-5.21,7.55C64.61,283.83,63.27,283.9,61.85,283.9z M61.81,221.05c-1.66,0-3.43,0.09-5.33,0.26
				c-0.75,0.07-1.88,1.48-1.98,3.86c-0.24,5.66-0.38,11.23-0.47,16.77l-0.03,1.77l-1.77,0.02c-6.5,0.09-11.79,0.24-16.67,0.46
				c-2.38,0.11-3.82,1.23-3.9,1.96c-0.4,3.43-0.44,6.4-0.14,9.08c0.09,0.76,1.56,1.89,4.02,1.96c5.67,0.15,11.22,0.27,16.66,0.35
				l1.78,0.03l0.02,1.78c0.09,6.52,0.24,11.81,0.46,16.66c0.11,2.38,1.23,3.82,1.96,3.9c3.44,0.39,6.4,0.44,9.08,0.14
				c0.77-0.09,1.9-1.66,1.96-4.02c0.15-5.64,0.27-11.18,0.35-16.6l0.02-1.79l1.79-0.01c6.24-0.04,11.74-0.15,16.82-0.35
				c2.32-0.09,3.84-1.2,3.9-1.95c0.24-2.71,0.21-5.7-0.09-9.12c-0.07-0.75-1.48-1.88-3.86-1.98c-5.64-0.24-11.19-0.37-16.71-0.47
				l-1.78-0.03l-0.01-1.79c-0.04-6.2-0.15-11.71-0.35-16.82c-0.09-2.32-1.2-3.83-1.95-3.9C64.39,221.11,63.14,221.05,61.81,221.05z"
				/>
		</g>
		<g class="st2">
			<path class="st13" d="M726.23,484.33c0,9,39.08,16.3,87.3,16.3c48.21,0,87.3-7.3,87.3-16.3c0-9-39.08-16.3-87.3-16.3
				C765.32,468.03,726.23,475.33,726.23,484.33z"/>
			<polygon class="st13" points="800.44,480.34 826.63,480.34 826.63,383.94 806.39,383.94 			"/>
			<path class="st13" d="M685.9,261.52c0,14.08,20.96,25.5,91.37,25.5c70.41,0,82.87-11.42,82.87-25.5
				c0-14.08-12.46-25.5-82.87-25.5C706.86,236.02,685.9,247.44,685.9,261.52z"/>
			<path class="st14" d="M989.58,140.64c45.64,0.06,111.97,9.81,80.38,67.59c-23.59,43.12-124,162.8-166.12,179.28
				c-42.12,16.47-227.63,22-225.86-20.66c1.9-45.7,129.41-49.51,129.41-49.51S903.54,140.53,989.58,140.64z"/>
			<path class="st15" d="M1024.96,142.96c27.65,7.01-21.24,71.28-26.67,79.93l-33.47,53.43c-44.78,78.66-77.23,86.56-83.98,90.2
				c-7.42,4-15.41,6.38-23.73,7.6c-10.02,1.46-20.25,1.88-30.35,2.58c-10.39,0.71-20.81,1.32-31.21,1.59
				c-10.52,0.27-21.05,0.2-31.56-0.46c-4.94-0.3-9.87-0.79-14.8-1.29c-4.99-0.52-10.08-0.82-14.94,0.68
				c-8.4,2.61-13.98,8.46-17.86,15.65c-23.35-5.16-38.94-13.53-38.43-26.04c1.9-45.69,129.41-49.51,129.41-49.51
				s96.16-176.8,182.2-176.69C1000.71,140.65,1013.09,141.24,1024.96,142.96z"/>
			<path class="st13" d="M923.18,147.2c-5.32-4.38-11.09-11.86-6.8-17.26c1.26-1.59,3.21-2.57,4.27-4.29
				c2.76-4.53-2.23-10.22-1.37-15.45c0.76-4.6,2.17-8.49,7.54-11.03c1.78-0.85,5.37-0.85,8.01,0.59c7.47,4.07,7.55,16.33,15.78,18.5
				c5.28,1.4,9.91-3.97,15.28-4.96c5.15-0.95,10.69,2.93,11.55,8.09c1.01,6.03-3.59,12.34-1.38,18.05
				c1.87,4.85,7.71,6.77,10.99,10.8c4.07,5,3.1,13.3-2.03,17.22c-3.21,2.45-7.94,3.66-9.15,7.51c-0.46,1.47-0.3,3.11-0.98,4.49
				c-0.78,1.58-2.48,2.47-4.11,3.16c-5.73,2.43-11.91,3.8-18.13,4c-1.71,0.06-3.5,0.01-5-0.82c-1.92-1.05-2.99-3.15-3.95-5.12
				c-4.68-9.67-9.36-19.33-14.04-29"/>
			<path class="st16" d="M837.22,270.02c0,0-104-3.23-145.08,5.11c-6.53,1.32-12.59,3.74-18.34,7.17c-0.1,0.08-0.23,0.13-0.34,0.21
				c-8.08,4.82-15.53,11.64-22.83,20.1c-0.1,0.13-0.23,0.26-0.34,0.39c-5.65,6.59-29.17,41.58-35.63,52.09
				c-6.5,10.6-13.39,21.93-20.9,33.82l-9.6,15.71c-0.13-0.08-0.26-0.13-0.39-0.21c-0.46,0.75-0.95,1.47-1.44,2.22
				c0,0-5.34,9.06,16.95,18.65l41.67-37.36l70.82-63.44l136.82-7.3L837.22,270.02z"/>
			<path class="st17" d="M724.87,323.78l-13.09,0.7l-52.93,47.42c-0.52-16.35,0.53-57.17,22.35-71.05l11.31-4.69l-6.51-19.43
				c2-0.65,4.03-1.18,6.13-1.61c4.82-0.97,10.49-1.79,16.77-2.49L724.87,323.78z"/>
			<path class="st17" d="M646.16,383.28l-5.2,4.66l-8.64,7.75l-25.23-28.24c2.59-4.22,5.11-8.34,7.58-12.36
				c1.06-1.73,2.58-4.11,4.4-6.92L646.16,383.28z"/>
			<path class="st18" d="M799.37,270.14c0,0-59.35-3.39-90.72,2.54l4.24,43.24l78,0.85L799.37,270.14z"/>
			<path class="st9" d="M693.08,272.14c0,0,12.05,51.52,13.47,50.67c1.42-0.85,15.66-3.13,15.66-3.13l-10.53-53.23L693.08,272.14z"
				/>
			<path class="st16" d="M875.9,305.85c0,0,23.4,91.67-163.01,38.89l-33.91,122.93c0,0,2.69,7.9-19.5-1.7
				c1.18-5.9-12.54-135.33,26.41-161.3c38.95-25.97,146.94-13.58,146.94-13.58L875.9,305.85z"/>
			<path class="st17" d="M732.83,350.03c-6.35-1.56-13.01-3.34-19.94-5.29l-3.08,11.2c-4.91-15.35-13.13-42.18-15.6-55.8
				c8.55-3.87,19.02-6.57,30.33-8.42L732.83,350.03z"/>
			<path class="st17" d="M693.64,414.53l-9.68,35.06l-25.24-4.69c-0.46-11.12-0.88-25.63-0.56-41.17
				C666.44,406.21,683.18,411.24,693.64,414.53z"/>
			<path class="st19" d="M791.74,293.88c0,0-19.5-13.56-76.3-0.85c0,0,12.72,35.61,5.93,54.26c0,0,57.65,17.8,94.95,14.41
				c37.3-3.39,52.56-10.17,56.8-28.83C877.36,314.22,791.74,293.88,791.74,293.88z"/>
			<path class="st18" d="M863.75,321.25c-13.55,13.25-33.13,16.81-51.39,17.18c-10.22,0.21-20.47-0.27-30.67-0.95
				c-10.31-0.69-20.59-1.73-30.83-3.11c-11.41-1.54-22.75-3.5-34.02-5.87c-0.96-0.2-1.27,1.28-0.31,1.48
				c20.41,4.3,41.1,7.23,61.9,8.77c10.39,0.77,20.83,1.28,31.24,1.22c9.98-0.06,20.04-0.84,29.68-3.56
				c9.46-2.68,18.46-7.25,25.53-14.17C865.59,321.57,864.44,320.57,863.75,321.25z"/>
			<path class="st6" d="M701.14,294.34l22.2-6.75c0,0,11.1,51.73,5.98,65.39l-17.08-2.56L701.14,294.34z"/>
			<path class="st16" d="M767.14,235.21c-6.62-1.27-11.31-1.82-11.31-1.82c-4.22-0.43-14.45-0.78-14.63,1.2
				c-0.05,0.51,0.49,1.27,2.16,1.74c2.13,0.6,4.73,1.01,7.79,1.85c-6.53-1.72-17.45-1.8-17.62,1.08c-0.17,2.88,11.12,2.5,15.15,3.68
				c-6.97-1.18-15.65-0.6-16.55,1.02c-0.91,1.62,9.71,4.54,15.56,4.81c-6.24-1.13-14.47-1.16-14.69,0.66
				c-0.22,1.83,12.6,4.3,18.11,4.87c-2.58,2.72-5.18,6.03-3.15,6.49c2.34,0.53,10.63-4.35,14.75-6.63"/>
			<path class="st9" d="M909.87,190.85c0,0-23.05-7.02-47.21,6.66c-21.16,11.98-31.39,33.4-52.08,31.55
				c-11.48-1.02-39.2-0.15-50.8,1.77c0,0,1.77,16.2-2.03,26.46c0,0,43.5,9.52,64.28,9.06c20.77-0.46,41.16-24,48.45-35.29
				C877.78,219.77,909.87,190.85,909.87,190.85z"/>
			<path class="st7" d="M959.07,183.53c0.6-0.97,0.3-2.25-0.68-2.85c-0.97-0.6-2.25-0.3-2.85,0.68c-0.6,0.97-0.3,2.25,0.68,2.85
				C957.19,184.81,958.47,184.5,959.07,183.53z"/>
			<path class="st20" d="M968.56,153.75c0,0,0.02,0.02,0.02,0.02l-0.03,0.04C968.56,153.79,968.56,153.77,968.56,153.75z"/>
			<path class="st16" d="M929.23,134.53c3.08,1.26,29.04,6.75,34.95,23.25c-2.73,4.24-15.21,17.63-14.83,17.45
				c0.8-0.37,1.01-0.63,5.93,0.93c0.49,0.13,0.98,0.3,1.45,0.54c4,2.07,5.57,6.99,3.5,10.98c-2.07,4-6.99,5.56-10.99,3.49
				c-1.09-0.56-1.98-1.35-2.69-2.26l-12.9,20.58c-0.34,0.74-0.71,1.47-1.16,2.18c-5.48,8.74-17,11.38-25.74,5.9
				c-8.74-5.48-11.38-17-5.9-25.74c0.42-0.67,0.88-1.28,1.36-1.88l5.51-8.79c-6.58-7.99-2.51-17.35,3.36-24.25
				C916.96,150,928.91,134.84,929.23,134.53z"/>
			<path class="st17" d="M953.85,185.35c-0.01-1.31-0.45-2.62-1.23-3.67c0,0,0.41-0.2,1.37,0.07c0.96,0.27,2.76,1.31,2.76,1.31
				c-0.89-1.36-2.6-2.32-4.2-2c-1.92,0.39-3.11,1.29-3.7,2.8c0,0,2.07-2.08,3.29-1.97L953.85,185.35z"/>
			<path class="st17" d="M931.12,169.29c1.82-2.96,5.7-3.88,8.66-2.06c2.96,1.82,3.88,5.7,2.06,8.66c-1.82,2.96-5.7,3.88-8.66,2.06
				C930.22,176.13,929.3,172.25,931.12,169.29z"/>
			<path class="st17" d="M915.58,151.5c0.38,0.14,0.75,0.32,1.11,0.54c2.96,1.82,3.88,5.7,2.06,8.66c-1.82,2.96-5.7,3.88-8.66,2.06
				c-0.8-0.5-1.44-1.15-1.93-1.89c0.89-1.38,1.89-2.71,2.95-3.96C912.37,155.41,913.92,153.53,915.58,151.5z"/>
			<g>
				<g>
					<path class="st13" d="M927.02,141.74c1.77-2.31,5.77-0.52,7.33,1.18c0.85,0.93,1.56,2.79,0.73,3.93
						c-0.79,1.09-4.16-0.68-5.19-1.25c-0.96-0.53-2.31-0.79-2.89-1.78C926.61,143.15,926.53,142.39,927.02,141.74L927.02,141.74z"/>
				</g>
				<g>
					<path class="st13" d="M948.42,159.29c-1.15-0.81-1.28-1.95-1.83-3.17c-0.51-1.14-2.13-4.64-0.8-5.39
						c1.16-0.65,2.94,0.16,3.77,1.04c1.62,1.74,3.05,5.86,0.55,7.47C949.66,159.54,948.88,159.61,948.42,159.29L948.42,159.29z"/>
				</g>
				<path class="st13" d="M935.81,150.2c-4.63,2.51-9.34,4.87-14.13,7.07c-0.17,0.08-0.25,0.33-0.2,0.5
					c0.76,2.32,1.73,4.56,2.92,6.7c0.28,0.5,1.04,0.04,0.76-0.46c-1.09-1.96-1.99-4.01-2.71-6.13c4.67-2.16,9.28-4.47,13.81-6.92
					C936.76,150.68,936.31,149.92,935.81,150.2z"/>
				<path class="st13" d="M920.21,169.55c1.02,2.19,3.56,3.32,5.85,2.47c0.24-0.09,0.5-0.04,0.63,0.21c0.11,0.2,0.03,0.54-0.21,0.63
					c-2.76,1.01-5.86-0.2-7.11-2.89C919.13,169.43,919.96,169.01,920.21,169.55z"/>
				<path class="st13" d="M942.52,159.9c-0.24-0.36-0.69-0.41-1.05-0.21c-0.85,0.47-3.77,1.64-4.56-3.29
					c-0.06-0.4-0.54-0.62-0.96-0.48c-0.36,0.12-1.02,3.41,1.32,5.91c0.68,0.72,1.73,0.8,2.66,0.55c0.9-0.25,1.69-0.83,2.39-1.43
					C942.63,160.69,942.77,160.27,942.52,159.9z"/>
				<path class="st13" d="M923.74,146.68c0.39,0.04,0.61,0.38,0.61,0.74c-0.02,0.87,0.3,3.66,4.52,2.21
					c0.35-0.12,0.72,0.17,0.78,0.56c0.06,0.33-2.26,2.25-5.21,1.45c-0.85-0.23-1.36-1.03-1.55-1.87c-0.18-0.81-0.05-1.68,0.12-2.48
					C923.07,146.93,923.35,146.64,923.74,146.68z"/>
			</g>
			<path class="st17" d="M907.74,181.15c0,0,11.59,13.56,34.37,8.79c0,0-22.43,19.14-39.43-0.72L907.74,181.15z"/>
			<path class="st6" d="M933.88,208.81c0,0-19.78,5.65-28.26-2.83c-8.51-8.51-3.39-16.04-3.39-16.04l-9.61,0.78
				c-47.48,9.89-57.88,69.09-57.88,69.09l-48.94,7.77c27.44,20.37,10.11,56.52,34.05,77.99c26.9,24.13,49.76,5.12,49.76,5.12
				s30.27-46.81,52.03-77.22C943.41,243.07,946,237.5,946,237.5C946.5,222.53,933.88,208.81,933.88,208.81z"/>
			<path class="st21" d="M884.65,284.98c-9.72-9.37-20.93-17.18-33.09-23.04c-3.45-1.66-6.98-3.16-10.56-4.51
				c-0.91-0.34-1.59,1.01-0.68,1.36c12.57,4.72,24.38,11.42,34.84,19.84c2.94,2.37,5.77,4.87,8.49,7.49
				C884.35,286.8,885.35,285.66,884.65,284.98z"/>
			<path class="st21" d="M844.98,289.85c-2.05-8.42-5.21-16.53-9.36-24.14c-0.47-0.86-1.72-0.01-1.26,0.85
				c4.09,7.49,7.16,15.49,9.19,23.77C843.77,291.28,845.21,290.79,844.98,289.85z"/>
			<path class="st21" d="M835.54,287.38c-2.09-3.6-4.18-7.21-6.27-10.81c-0.49-0.84-1.75,0-1.26,0.85c2.09,3.6,4.18,7.21,6.27,10.81
				C834.77,289.07,836.03,288.22,835.54,287.38z"/>
			<path class="st21" d="M833.74,337.63c-4.14-2.98-6.53-7.58-8.53-12.15c-2.06-4.71-3.91-9.52-5.76-14.32
				c-3.64-9.44-7.26-18.95-12.18-27.82c-2.77-4.99-5.97-9.74-9.74-14.03c-0.63-0.72-1.9,0.11-1.26,0.85
				c13.78,15.74,19.15,36.43,27.26,55.24c2.15,4.99,4.68,10.11,9.21,13.37C833.52,339.33,834.53,338.2,833.74,337.63z"/>
			<path class="st21" d="M876.16,272.12c-8.11-8.58-17.09-16.3-26.79-23.02c-0.79-0.55-1.8,0.58-1,1.14
				c9.7,6.73,18.68,14.45,26.79,23.02C875.83,273.97,876.82,272.83,876.16,272.12z"/>
			<path class="st21" d="M930.32,216.34c-6.23,2.21-13.04,3.22-19.51,1.48c-5.74-1.55-10.99-5.31-13.35-10.9
				c-1.31-3.11-1.69-6.53-0.87-9.81c0.23-0.95-1.25-1.26-1.48-0.31c-1.53,6.18,0.85,12.75,5.4,17.07c4.81,4.57,11.6,6.52,18.13,6.34
				c4.16-0.11,8.26-1.05,12.17-2.44C931.72,217.46,931.24,216.02,930.32,216.34z"/>
			<path class="st13" d="M858.95,338.19c0,0,3.46,41.49-32.27,46.1c0,0-11.53-9.22,1.15-12.68c12.68-3.46,19.59-10.37,20.75-31.12
				C849.73,319.75,857.79,327.82,858.95,338.19z"/>
			<path class="st13" d="M757.32,314.13c0,14.08,20.96,25.5,91.37,25.5s82.87-11.42,82.87-25.5c0-14.08-12.46-25.5-82.87-25.5
				S757.32,300.05,757.32,314.13z"/>
			<path class="st14" d="M791.74,291.33c0-7.96-6.45-14.41-14.41-14.41c-7.96,0-14.41,6.45-14.41,14.41
				c0,7.96,6.45,14.41,14.41,14.41C785.28,305.75,791.74,299.29,791.74,291.33z"/>
			<path class="st16" d="M801.88,308.49c-6.2-0.75-9.9-1.58-9.9-1.58l0.01-0.14c-4.29,0.53-8.49,0.59-11.87,0.26
				c-0.52-0.05-1.66-0.54-2.1-0.85c-0.44-0.31-0.75-0.89-0.58-1.38c0.16-0.49,0.7-0.68,1.16-0.89c2.13-1,3.41-1,8.97-2.49
				c-6.63,1.28-10.76,1.37-13.94,1.08c-1.55-0.14-2.45-0.58-2.76-1.21c-0.34-0.7,0.17-1.33,0.77-1.76c1.78-1.27,3.95-1.58,6.11-2.06
				c4.1-0.9,2.74-0.66,6.84-1.55c-4.31,0.42-14.34,1.26-15.14-0.42c-0.79-1.67,3.18-3.08,4.48-3.31c4.76-0.83,5.3-1.33,10.06-2.16
				c-6.3,0.71-13.7,1.37-13.8-0.47c-0.09-1.84,12.05-4.63,17.58-4.82c-2.39-2.89-4.76-6.36-2.7-6.69
				c2.38-0.37,13.41,8.62,17.37,11.18c0.51-0.01,3.97,3.05,4.51,3.03"/>
			<path class="st16" d="M800.36,308.38c69.24,6.91,84.15,16.62,140.42-40.08c0,0,19-33.69-5.09-40.43
				c-17.9-5.01-52.47,49.44-65.22,53.84c-12.75,4.4-37.07,6.7-52.78,6.44c-5.78-0.1-17.75-1.38-22.68-0.91"/>
			<path class="st17" d="M804.07,290.63c-0.54-0.81-1.8,0.03-1.26,0.85c1.65,2.47,2.58,5.34,2.69,8.32
				c0.04,0.98,1.55,0.89,1.51-0.08C806.89,296.47,805.86,293.32,804.07,290.63z"/>
			<path class="st6" d="M926.64,210.36c14.7-6.22,29.84,0.82,32.68,19.37c3.73,24.35-36.93,58.88-56.93,70.9l-18.66-28.3
				C883.72,272.33,912.4,216.38,926.64,210.36z"/>
			<g>
				<g>
					<path class="st21" d="M910.54,227.6c-8.97,13.6-17.79,27.08-24.01,42.22c-0.41,1.01,1.23,1.45,1.64,0.45
						c6.16-14.99,14.96-28.34,23.84-41.81C912.61,227.55,911.14,226.7,910.54,227.6L910.54,227.6z"/>
				</g>
			</g>
			<polygon class="st9" points="919.93,293.14 902.31,302.93 877.39,275.96 886.73,262.67 			"/>
			<polygon class="st7" points="870.47,281.72 881.23,292.86 872.01,295.93 864.33,283.64 			"/>
			<polygon class="st6" points="868.17,282.58 873.35,289.21 870.76,290.08 865.86,283.45 			"/>
			<path class="st13" d="M927.96,130.27c-0.9,6.2,4.08,12.64,10.3,13.32c2.13,0.23,4.29-0.12,6.41,0.16
				c2.12,0.28,4.36,1.43,4.96,3.48c0.43,1.49-0.08,3.21,0.65,4.59c1.31,2.47,5.27,1.81,7.29,3.75c1.71,1.64,1.33,4.6-0.06,6.53
				c-1.39,1.93-3.51,3.17-5.36,4.65c-2.69,2.15-8.65,6.46-6.39,10.42c2.26,3.96,15.86-5.84,20.34-11.21
				c2.06-2.47,3.85-5.27,4.59-8.41c1.18-4.98-0.46-10.36-3.62-14.38c-3.16-4.02-7.69-6.79-12.48-8.6"/>
			<path class="st21" d="M827.27,251.35c-1.81-6.23-3.61-12.47-5.42-18.7c-0.27-0.94-1.71-0.45-1.44,0.48
				c1.81,6.23,3.61,12.47,5.42,18.7C826.11,252.77,827.55,252.29,827.27,251.35z"/>
			<path class="st21" d="M832.16,240.4c-1.67-3.02-3.51-5.94-5.51-8.75c-0.56-0.79-1.83,0.05-1.26,0.85c2,2.81,3.84,5.73,5.51,8.75
				c0.2,0.36,0.73,0.42,1.05,0.21C832.32,241.2,832.36,240.76,832.16,240.4z"/>
			<path class="st21" d="M767.19,234.28c-0.26-0.94-1.7-0.46-1.44,0.48c1.77,6.45,2.3,13.18,1.57,19.83
				c-0.11,0.96,1.38,1.28,1.48,0.31C769.57,247.98,769.03,241,767.19,234.28z"/>
			<path class="st21" d="M905.07,292.16c-5.54-5.94-11.43-11.54-17.65-16.77c-0.75-0.63-1.75,0.51-1,1.14
				c6.21,5.23,12.11,10.83,17.65,16.77C904.73,294.02,905.73,292.87,905.07,292.16z"/>
			<path class="st21" d="M909.31,291.05c-2.49-3.08-5.21-5.98-8.13-8.66c-0.72-0.66-1.72,0.48-1,1.14c2.83,2.59,5.46,5.38,7.87,8.37
				c0.26,0.32,0.69,0.45,1.05,0.21C909.42,291.89,909.57,291.37,909.31,291.05z"/>
			<g>
				<g>
					<path class="st9" d="M621.68,468.7l64.29,6.33l6.38-54.26l-35.58-7.83l1.29,40.14C638.95,448.24,623.73,460.12,621.68,468.7z"
						/>
					<polygon class="st22" points="656.78,412.94 671.17,427.03 676.86,463.75 647.84,471.28 685.97,475.03 692.36,420.77 					"/>
				</g>
				<g>
					<g>
						<path class="st7" d="M644.99,464.75c0.3-0.01,0.37-1.9-0.6-3.94c-0.96-2.05-2.45-3.2-2.65-2.98
							c-0.23,0.22,0.78,1.59,1.64,3.46C644.26,463.13,644.67,464.79,644.99,464.75z"/>
					</g>
				</g>
				<g>
					<g>
						<path class="st7" d="M652.25,464.24c0.29-0.02,0.3-1.93-0.85-3.91c-1.15-1.98-2.82-2.92-2.98-2.67c-0.2,0.25,1,1.46,2.01,3.23
							C651.47,462.65,651.93,464.29,652.25,464.24z"/>
					</g>
				</g>
				<g>
					<g>
						<path class="st7" d="M658.04,457.44c0.23-0.18-1.3-2.01-4.02-2.71c-2.72-0.73-4.94,0.1-4.84,0.37
							c0.07,0.32,2.14,0.05,4.55,0.71C656.15,456.43,657.83,457.69,658.04,457.44z"/>
					</g>
				</g>
				<g>
					<g>
						<path class="st7" d="M671.37,470.62c-18.04-1.96-47.86-5.42-47.9-5.12c-0.03,0.31,29.74,4.27,47.78,6.23
							C689.28,473.68,689.4,472.57,671.37,470.62z"/>
					</g>
				</g>
				<g>
					<g>
						<path class="st7" d="M685.07,458.24c0.03-0.11-1.51-0.61-4.09-0.66c-2.57-0.06-6.18,0.5-9.76,2.2
							c-3.57,1.71-6.28,4.17-7.85,6.2c-1.58,2.04-2.16,3.54-2.06,3.59c0.16,0.1,0.98-1.25,2.66-3.08c1.67-1.84,4.32-4.07,7.73-5.71
							c3.42-1.62,6.82-2.28,9.3-2.42C683.48,458.22,685.04,458.43,685.07,458.24z"/>
					</g>
				</g>
				<g>
					<g>
						<path class="st7" d="M679.46,458.11c0.31-0.07,0.3-13.06,0.03-15.76c-0.27-2.71-0.54-15.65-0.85-15.65
							c-0.3-0.01-0.54,12.98-0.26,15.76C678.65,445.24,679.16,458.18,679.46,458.11z"/>
					</g>
				</g>
				<g>
					<g>
						<path class="st7" d="M638.38,467.09c0.14,0.03,0.45-0.55,0.55-1.6c0.1-1.04-0.1-2.55-0.93-3.97
							c-0.83-1.42-2.06-2.33-3.01-2.74c-0.96-0.43-1.63-0.44-1.66-0.3c-0.12,0.29,2.28,1.14,3.71,3.61
							C638.49,464.55,638.07,467.06,638.38,467.09z"/>
					</g>
				</g>
			</g>
			<g>
				<g>
					<path class="st9" d="M549.05,385.77l47.74,43.53l35.52-33.61l-23.27-34.41l-21.49,33.73
						C575.13,379.7,555.83,380.12,549.05,385.77z"/>
					<polygon class="st22" points="609.04,361.27 618.79,390.07 600.86,414.79 568.54,403.53 596.79,429.29 632.31,395.68 					"/>
				</g>
				<g>
					<g>
						<path class="st7" d="M570.1,396.55c0.25,0.17,1.43-1.3,1.88-3.52c0.46-2.22-0.05-4.03-0.34-3.97
							c-0.32,0.04-0.33,1.74-0.75,3.75C570.48,394.81,569.82,396.38,570.1,396.55z"/>
					</g>
				</g>
				<g>
					<g>
						<path class="st7" d="M576.22,400.48c0.25,0.16,1.4-1.37,1.65-3.64c0.27-2.27-0.51-4.02-0.79-3.92
							c-0.31,0.08-0.08,1.77-0.32,3.79C576.55,398.74,575.94,400.33,576.22,400.48z"/>
					</g>
				</g>
				<g>
					<g>
						<path class="st7" d="M584.93,398.49c0.29-0.01,0.16-2.38-1.6-4.58c-1.74-2.21-4.02-2.88-4.1-2.59
							c-0.14,0.3,1.69,1.32,3.22,3.29C584.02,396.55,584.61,398.56,584.93,398.49z"/>
					</g>
				</g>
				<g>
					<g>
						<path class="st7" d="M587.73,417.02c-13.29-12.35-35.12-32.97-35.33-32.75c-0.21,0.23,21.28,21.21,34.56,33.56
							C600.25,430.19,601.01,429.37,587.73,417.02z"/>
					</g>
				</g>
				<g>
					<g>
						<path class="st7" d="M606.11,415.3c0.09-0.08-0.84-1.39-2.88-2.97c-2.02-1.58-5.25-3.29-9.13-4.07
							c-3.89-0.76-7.53-0.41-10,0.28c-2.49,0.69-3.85,1.54-3.8,1.65c0.07,0.17,1.53-0.41,3.97-0.88c2.43-0.47,5.9-0.68,9.61,0.05
							c3.71,0.75,6.83,2.26,8.9,3.62C604.85,414.33,605.97,415.43,606.11,415.3z"/>
					</g>
				</g>
				<g>
					<g>
						<path class="st7" d="M601.69,411.83c0.29,0.13,8.05-10.29,9.45-12.61c1.4-2.33,8.93-12.86,8.68-13.05
							c-0.24-0.19-8.2,10.08-9.63,12.48C608.74,401.04,601.42,411.71,601.69,411.83z"/>
					</g>
				</g>
				<g>
					<g>
						<path class="st7" d="M563.4,394.47c0.09,0.11,0.69-0.17,1.39-0.95c0.7-0.77,1.45-2.11,1.63-3.74c0.18-1.63-0.26-3.1-0.77-4
							c-0.52-0.92-1.04-1.32-1.15-1.23c-0.27,0.16,1.14,2.27,0.82,5.11C565.01,392.5,563.17,394.25,563.4,394.47z"/>
					</g>
				</g>
			</g>
		</g>
		<g class="st2">
			<path class="st6" d="M869.51,286.58c-10.78,9.69-24.45,16-38.84,17.89c-11.28,1.49-22.99,0.29-34.32-0.86
				c-16.74-1.7-32.57-3.32-47.39,2.85c-4.76,1.99-9.25,4.76-13.59,7.45c-2.08,1.29-4.22,2.61-6.37,3.84
				c-16.58,9.46-36.88,14.98-60.39,16.41c-2.65,0.15-5.51,0.27-8.46,0.27c-8.66,0-18.33-1.03-27.1-5.1
				c-10.51-4.9-29-18.82-34.59-57.13c-5.55-38,2.18-75.99,9.65-112.72l1.49,0.3c-7.45,36.61-15.14,74.46-9.63,112.21
				c1.8,12.36,5.41,23.73,10.43,32.91c5.96,10.87,13.8,18.64,23.29,23.05c11.45,5.32,24.63,5.29,34.83,4.69
				c23.26-1.41,43.36-6.87,59.72-16.21c2.14-1.21,4.26-2.53,6.32-3.81c4.4-2.71,8.93-5.52,13.8-7.55
				c15.18-6.32,31.94-4.61,48.13-2.97c11.24,1.15,22.85,2.34,33.97,0.88c14.15-1.87,27.57-8.07,38.14-17.62L869.51,286.58z"/>
		</g>
		<path class="st0" d="M614.92,154.43c-0.49,4.53-2.59,11.66-6.63,11.66c-4.04,0-6.22-7.37-6.66-12L614.92,154.43z"/>
		<g class="st2">
			<path class="st5" d="M53.04,437.37L53.04,437.37L53.04,437.37c7.6-4.15,15.4-5.98,23.06-5.46c7.73,0.46,15.07,3.49,21.7,8.82
				c0,0-1.65-2.19-4.12-5.46c-2.42-3.32-5.84-7.6-9.33-11.82c-3.46-4.24-6.92-8.49-9.51-11.67c-1.27-1.61-2.42-2.89-3.22-3.77
				c-0.8-0.89-1.25-1.41-1.25-1.41c-7.9,4.31-16.03,6.25-23.84,5.93c-3.91-0.16-7.73-0.89-11.43-2.2c-3.78-1.2-7.49-2.87-11.01-5.16
				h0l0,0c7.21-4.81,14.83-7.35,22.54-7.51c7.59-0.03,15.1,2.46,22.19,7.22c0,0-4.06-4.56-8.11-9.12c-2.05-2.26-4.02-4.59-5.62-6.23
				c-1.61-1.63-2.68-2.72-2.68-2.72c-8.71-2.02-15.67-6.05-21.25-11.48c-5.72-5.26-9.78-12.28-12.16-21.04l0,0l0,0
				c8.71,1.22,16.43,4.78,22.51,10.12c5.92,5.48,9.84,13.04,11.73,21.61c0,0,0.54,0.54,1.47,1.49c0.95,0.94,2.29,2.3,3.78,4.04
				c3.04,3.42,7.1,7.98,11.16,12.54c4.14,4.49,7.93,9.27,10.83,12.82c2.89,3.55,4.82,5.91,4.82,5.91
				c-3.61-7.7-4.78-15.76-4.14-23.45c0.66-7.69,3.52-15.32,8.64-22.38l0,0l0,0c2.44,4.1,4.22,8.25,5.34,12.37
				c1.09,4.14,1.35,8.36,1.07,12.42c-0.61,8.15-3.79,15.89-9.44,22.84c0,0,1.73,2.13,4.32,5.32c2.48,3.28,5.78,7.66,9.09,12.04
				c6.73,8.67,12.92,17.72,12.92,17.72c-1.52-3.99-2.46-7.99-2.86-11.96c-0.49-3.91-0.41-7.8,0.21-11.63
				c1.25-7.65,4.7-15.05,10.34-21.7l0,0l0,0c4.1,8.48,5.73,16.93,4.59,24.97c-1.18,8.07-4.87,15.61-10.94,22.22
				c0,0,1.58,2.24,3.95,5.6c2.42,3.33,5.43,7.91,8.46,12.48c3.03,4.57,6.07,9.14,8.34,12.56c2.19,3.48,3.65,5.8,3.65,5.8
				c-5.25-16.19-1.91-32.04,10.19-44.73l0,0l0,0c3.57,8.64,4.58,17.18,3.09,25.1c-1.52,7.93-5.66,15.31-12.04,21.6
				c0,0,1.46,2.32,3.65,5.8c2.22,3.47,5.11,8.13,7.89,12.85c2.81,4.71,5.63,9.41,7.74,12.94c2.05,3.57,3.41,5.95,3.41,5.95
				c-4.56-16.39-0.41-32.11,12.21-44.15l0,0l0,0c6.41,17.5,2.33,34.15-11.06,46.17c0,0,2.31,4.05,5.77,10.11
				c3.35,6.13,7.93,14.25,12.24,22.51c4.4,8.21,8.61,16.53,11.7,22.79c3.12,6.25,5.08,10.49,5.08,10.49l-1.04,0.48
				c0,0-5.61-11.9-11.7-23.57c-2.98-5.86-6.14-11.64-8.43-16.01c-2.37-4.33-3.95-7.22-3.95-7.22c-8.61,2.55-16.94,2.66-24.54,0.53
				c-7.69-2.08-14.6-6.44-20.48-12.91l0,0l0,0c16.34-5.72,32.22-2.1,43.9,10.34c0,0-5.25-9.62-10.76-19.09
				c-2.69-4.77-5.49-9.48-7.62-12.99c-2.11-3.52-3.52-5.87-3.52-5.87c-16.93,5.73-33.26,1.97-45.47-10.39l0,0l0,0
				c16.1-6.48,32.02-3.5,44.28,8.4c0,0-1.42-2.34-3.55-5.86c-2.19-3.48-5.11-8.11-8.02-12.75c-2.88-4.66-5.9-9.23-8.19-12.64
				c-2.27-3.42-3.79-5.7-3.79-5.7c-8.36,3.3-16.58,4.1-24.36,2.72c-7.83-1.35-15.13-4.96-21.48-10.82l0,0l0,0
				c7.85-3.63,15.76-4.93,23.35-3.89c7.56,1.05,14.96,4.32,21.21,10.07c0,0-1.52-2.28-3.79-5.7c-2.36-3.36-5.52-7.84-8.67-12.32
				c-6.2-9.04-12.91-17.7-12.91-17.7c-8.16,3.74-16.38,5.07-24.15,4.1C67.33,445.66,59.68,442.75,53.04,437.37z"/>
		</g>
		<g class="st2">
			<path class="st23" d="M480.77,466.09L480.77,466.09L480.77,466.09c-5.63-6.58-12.27-11.06-19.62-13.3
				c-7.39-2.32-15.32-2.09-23.42,0.53c0,0,2.32-1.46,5.8-3.64c3.44-2.25,8.16-5.02,12.92-7.73c4.74-2.74,9.48-5.48,13.04-7.53
				c1.76-1.05,3.28-1.84,4.35-2.38c1.06-0.55,1.67-0.87,1.67-0.87c5.86,6.84,12.77,11.54,20.18,14.01c3.71,1.24,7.55,1.91,11.47,2
				c3.96,0.22,8.02-0.02,12.12-0.92l0,0l0,0c-5.03-7.06-11.25-12.14-18.4-15.03c-7.08-2.73-14.98-3.06-23.31-1.14
				c0,0,5.41-2.82,10.82-5.64c2.72-1.39,5.39-2.87,7.46-3.83c2.08-0.95,3.47-1.59,3.47-1.59c8.87,1.2,16.8-0.09,23.94-3.18
				c7.22-2.89,13.5-8.01,18.85-15.34l0,0l0,0c-8.57-1.96-17.06-1.37-24.63,1.46c-7.48,3.02-13.84,8.69-18.65,16.03
				c0,0-0.69,0.32-1.91,0.87c-1.22,0.54-2.95,1.34-4.97,2.43c-4.06,2.11-9.47,4.93-14.88,7.75c-5.46,2.72-10.71,5.85-14.67,8.13
				c-3.96,2.29-6.61,3.81-6.61,3.81c6.11-5.91,10.07-13.04,12.2-20.45c2.12-7.43,2.16-15.58-0.12-23.99l0,0l0,0
				c-3.73,2.97-6.88,6.21-9.39,9.67c-2.49,3.48-4.23,7.33-5.41,11.23c-2.33,7.83-2.1,16.2,0.71,24.7c0,0-2.37,1.38-5.93,3.44
				c-3.48,2.19-8.13,5.11-12.77,8.02c-9.37,5.71-18.38,11.97-18.38,11.97c2.83-3.19,5.14-6.59,6.93-10.16
				c1.84-3.48,3.16-7.15,3.93-10.95c1.55-7.6,0.96-15.73-1.96-23.95l0,0l0,0c-6.85,6.47-11.37,13.79-13.17,21.71
				c-1.77,7.97-1,16.32,2.33,24.65c0,0-2.27,1.53-5.68,3.83c-3.44,2.25-7.89,5.46-12.35,8.66c-4.46,3.19-8.92,6.39-12.26,8.78
				c-3.28,2.48-5.47,4.13-5.47,4.13c10.66-13.26,13.17-29.27,6.37-45.43l0,0l0,0c-6.41,6.81-10.39,14.43-11.81,22.36
				c-1.4,7.96-0.15,16.33,3.58,24.47c0,0-2.19,1.65-5.47,4.13c-3.3,2.45-7.66,5.78-11.94,9.21c-4.3,3.4-8.61,6.8-11.83,9.35
				c-3.18,2.61-5.3,4.35-5.3,4.35c10.09-13.7,11.79-29.87,4.27-45.61l0,0l0,0c-12.21,14.08-14.31,31.09-6.07,47.08
				c0,0-3.6,2.96-8.99,7.4c-5.31,4.54-12.47,10.5-19.44,16.69c-7.03,6.12-13.92,12.39-19.04,17.15c-5.13,4.74-8.48,8-8.48,8
				l0.8,0.82c0,0,9.47-9.12,19.31-17.87c4.87-4.42,9.87-8.7,13.57-11.97c3.75-3.21,6.25-5.34,6.25-5.34
				c7.14,5.44,14.89,8.51,22.75,9.21c7.93,0.79,15.94-0.83,23.73-4.79l0,0l0,0c-13.24-11.15-29.37-13.42-44.71-5.93
				c0,0,8.32-7.12,16.84-14.02c4.21-3.5,8.5-6.91,11.74-9.44c3.23-2.54,5.38-4.24,5.38-4.24c13.79,11.38,30.39,13.66,46.2,6.44h0
				l0,0c-12.75-11.78-28.69-14.65-44.38-7.88c0,0,2.16-1.68,5.4-4.21c3.28-2.47,7.66-5.77,12.03-9.07c4.34-3.34,8.8-6.53,12.15-8.9
				c3.34-2.39,5.57-3.98,5.57-3.98c6.64,6.06,14.04,9.73,21.8,11.2c7.8,1.52,15.9,0.74,23.93-2.49l0,0l0,0
				c-6.05-6.18-12.98-10.2-20.44-11.94c-7.44-1.71-15.52-1.28-23.4,1.87c0,0,2.23-1.59,5.57-3.98c3.4-2.3,7.94-5.37,12.48-8.43
				c9.01-6.24,18.35-11.95,18.35-11.95c6.3,6.4,13.51,10.56,21.12,12.42C464.47,468.76,472.65,468.77,480.77,466.09z"/>
		</g>
		<g class="st2">
			<path class="st5" d="M1010.9,447.37L1010.9,447.37L1010.9,447.37c-7.6-4.15-15.4-5.98-23.06-5.46
				c-7.73,0.46-15.07,3.49-21.7,8.82c0,0,1.65-2.19,4.12-5.46c2.42-3.32,5.84-7.6,9.33-11.82c3.46-4.24,6.92-8.49,9.51-11.67
				c1.27-1.61,2.42-2.89,3.22-3.77c0.8-0.89,1.25-1.41,1.25-1.41c7.9,4.31,16.03,6.25,23.84,5.93c3.91-0.16,7.73-0.89,11.43-2.2
				c3.78-1.2,7.49-2.87,11.01-5.16h0l0,0c-7.21-4.81-14.83-7.35-22.54-7.51c-7.59-0.03-15.09,2.46-22.19,7.22
				c0,0,4.06-4.56,8.11-9.12c2.05-2.26,4.02-4.59,5.61-6.23c1.61-1.63,2.68-2.72,2.68-2.72c8.71-2.02,15.67-6.05,21.25-11.48
				c5.72-5.26,9.78-12.28,12.16-21.04l0,0l0,0c-8.71,1.22-16.43,4.78-22.51,10.12c-5.92,5.48-9.84,13.04-11.73,21.61
				c0,0-0.54,0.54-1.47,1.49c-0.95,0.94-2.29,2.3-3.78,4.04c-3.04,3.42-7.1,7.98-11.16,12.54c-4.14,4.49-7.93,9.27-10.83,12.82
				c-2.89,3.55-4.82,5.91-4.82,5.91c3.61-7.7,4.78-15.76,4.14-23.45c-0.66-7.69-3.52-15.32-8.64-22.38l0,0l0,0
				c-2.44,4.1-4.22,8.25-5.34,12.37c-1.09,4.14-1.35,8.36-1.07,12.42c0.61,8.15,3.79,15.89,9.44,22.84c0,0-1.73,2.13-4.32,5.32
				c-2.48,3.28-5.78,7.66-9.09,12.04c-6.73,8.67-12.92,17.72-12.92,17.72c1.52-3.99,2.46-7.99,2.86-11.96
				c0.49-3.91,0.41-7.8-0.21-11.63c-1.25-7.65-4.7-15.05-10.34-21.7l0,0l0,0c-4.1,8.48-5.73,16.93-4.59,24.97
				c1.18,8.07,4.87,15.61,10.94,22.22c0,0-1.58,2.24-3.95,5.6c-2.42,3.33-5.43,7.91-8.46,12.48c-3.03,4.57-6.07,9.14-8.34,12.56
				c-2.19,3.48-3.65,5.8-3.65,5.8c5.25-16.19,1.91-32.04-10.19-44.73l0,0l0,0c-3.57,8.64-4.58,17.18-3.09,25.1
				c1.52,7.93,5.66,15.31,12.04,21.6c0,0-1.46,2.32-3.65,5.8c-2.22,3.47-5.11,8.13-7.89,12.85c-2.81,4.71-5.63,9.41-7.74,12.94
				c-2.05,3.57-3.41,5.95-3.41,5.95c4.56-16.39,0.41-32.11-12.21-44.15l0,0l0,0c-6.41,17.5-2.33,34.15,11.06,46.17
				c0,0-2.31,4.05-5.77,10.11c-3.35,6.13-7.93,14.25-12.24,22.51c-4.4,8.21-8.61,16.53-11.7,22.79c-3.12,6.25-5.08,10.49-5.08,10.49
				l1.04,0.48c0,0,5.61-11.9,11.7-23.57c2.98-5.86,6.14-11.64,8.43-16.01c2.37-4.33,3.95-7.22,3.95-7.22
				c8.61,2.55,16.94,2.66,24.54,0.53c7.69-2.08,14.6-6.44,20.48-12.91l0,0l0,0c-16.34-5.72-32.22-2.1-43.9,10.34
				c0,0,5.25-9.62,10.76-19.09c2.69-4.77,5.49-9.48,7.62-12.99c2.11-3.52,3.52-5.87,3.52-5.87c16.93,5.73,33.26,1.97,45.47-10.39
				l0,0l0,0c-16.1-6.49-32.02-3.5-44.28,8.4c0,0,1.42-2.34,3.55-5.86c2.19-3.48,5.11-8.11,8.02-12.75c2.88-4.66,5.9-9.23,8.19-12.64
				c2.27-3.42,3.79-5.7,3.79-5.7c8.36,3.3,16.58,4.1,24.36,2.72c7.83-1.35,15.13-4.96,21.48-10.82l0,0l0,0
				c-7.85-3.63-15.76-4.93-23.35-3.9c-7.56,1.05-14.96,4.32-21.21,10.07c0,0,1.52-2.28,3.79-5.7c2.36-3.36,5.52-7.84,8.67-12.32
				c6.2-9.04,12.91-17.7,12.91-17.7c8.16,3.74,16.38,5.07,24.15,4.1C996.61,455.66,1004.26,452.75,1010.9,447.37z"/>
		</g>
	</g>
</g>
<g id="TEXTS">
</g>
</svg>
