<?xml version="1.0" encoding="utf-8"?>
<!-- Generator: Adobe Illustrator 24.3.0, SVG Export Plug-In . SVG Version: 6.00 Build 0)  -->
<svg version="1.1" xmlns="http://www.w3.org/2000/svg" xmlns:xlink="http://www.w3.org/1999/xlink" x="0px" y="0px"
	 viewBox="0 0 1122 1122" style="enable-background:new 0 0 1122 1122;" xml:space="preserve">
<style type="text/css">
	.st0{fill:#F7ECED;}
</style>
<g id="Background">
</g>
<g id="Object">
	<g>
		<g>
			<path class="st0" d="M294.14,470.9c1.16,0.77,2.31,1.54,3.47,1.93c8.86,4.63,15.8,10.79,23.12,16.96
				c10.4,9.25,17.72,21.19,21.58,35.83c2.31,10.02,0.77,21.19-5.78,32.75c-1.93,3.85-4.24,8.09-7.32,11.56
				c-1.16,1.54-3.08,3.85-5.01,5.39c-7.32,6.94-15.41,11.56-24.28,15.02c-4.24,2.31-8.86,2.7-13.1,2.31
				c-3.47,0-6.55,0.39-10.02,2.31c-3.08,1.54-5.78,2.31-9.25,3.47c-8.09,1.93-15.03,2.31-21.96,1.15
				c-10.4-1.54-20.42-4.62-26.97-11.56c-5.78-6.17-7.32-14.26-3.85-25.04c2.7-6.55,6.16-13.1,11.18-19.65
				c4.24-6.16,9.25-12.33,15.41-17.72c1.16-0.77,1.93-2.31,2.7-3.47c3.08-5.78,4.62-6.94,10.4-6.16c2.31-0.77,3.85-4.24,6.94-3.08
				c-1.54,0.77-2.7,1.54-5.01,2.7c1.93,0.38,3.08,0.77,3.85,0.77c0,1.93,0,3.47,0.38,5.39c0.39,1.16,0,2.31-1.16,3.85
				c-2.31,3.08-4.24,6.17-6.94,9.63c-3.85,5.01-6.55,9.63-7.32,15.41c-0.77,3.47-0.77,6.55-1.16,10.4c-0.39,2.7,0.77,4.63,3.47,5.4
				c3.08,1.15,6.93,1.54,10.79,0.77c6.94-1.16,14.26-2.7,21.19-5.78c6.94-3.08,14.26-5.78,21.19-9.25
				c5.01-2.31,10.4-5.39,15.03-9.63c3.47-2.7,4.62-5.78,3.47-8.09c-2.7-8.86-6.17-16.57-13.49-22.35
				c-11.95-9.64-25.82-18.11-39.69-26.2c-8.48-5.01-16.18-10.4-23.5-16.57c-8.48-6.55-14.64-15.02-19.27-23.89
				c-8.86-14.64-0.77-34.68,11.56-49.7c11.17-13.87,26.2-23.12,41.61-31.6c4.63-1.93,9.25-3.08,13.49-5.01
				c23.5-8.48,45.47-9.25,66.66-7.71c6.55,0.77,12.72,1.93,19.27,2.7c6.94,0.77,13.49,2.31,18.5,6.17c1.93,1.54,3.08,3.08,1.93,6.16
				c-0.38,0.77-0.38,1.93-0.38,2.7c-0.38,1.93-0.38,3.85-1.16,5.78c-3.08,6.55-5.39,13.1-5.78,19.65c-0.38,2.7-2.31,6.55-4.24,9.63
				c-1.54,3.08-3.85,5.4-5.39,8.09c-1.54,2.7-3.47,4.63-6.17,6.17c-4.24,1.93-7.71,3.85-11.94,5c-2.31,1.16-4.63,1.16-6.16,0
				c-5.78-2.31-11.95-3.47-18.11-4.24c-12.33-1.54-24.66-3.47-38.15-3.08c-3.85,0.38-8.09,0.77-11.95,1.93
				c-4.62,0.77-8.86,1.93-13.1,2.7c-27.74,6.94-11.56,26.97,2.31,36.99C282.19,461.66,288.36,466.28,294.14,470.9z"/>
			<path class="st0" d="M430.92,515.21c-0.38-0.38-1.54-0.38-1.93,0.77c-0.38,0-0.38,0.38-0.38,0.77c-1.54,3.86-3.47,6.17-6.94,5.39
				c-1.93,1.93-2.7,3.86-4.24,5.39c-1.54,0.77-3.47,2.31-3.85,5.01c0,0.77-0.39,1.16-0.77,1.93c-1.93,2.7-3.85,4.63-5.39,6.94
				c-1.54,3.86-4.24,6.17-6.94,8.48c-1.16,1.54-3.08,2.7-4.24,5.39c0,0.38-0.77,1.54-1.93,1.54c-1.93,0.38-3.85,1.93-5.78,3.47
				c-4.24,2.31-8.48,4.24-13.1,4.63c-4.24,0-8.09-0.39-11.94-2.31c-6.16-3.47-8.48-10.02-9.25-18.49c0-1.93,0-3.85,0.77-5.78
				c0.77-11.95,3.08-23.89,6.17-35.84c1.93-6.55,4.24-12.33,6.55-18.11c5.01-10.4,9.25-21.58,14.26-31.98c0-1.16,0.38-1.54,0.77-2.7
				c2.31-8.86,6.93-17.34,11.56-25.43c1.54-2.31,2.31-4.63,3.85-7.71c1.93-0.38,3.85-0.38,5.39,1.16c4.24,2.7,8.48,5.78,13.1,8.48
				c0.77,0.38,1.93,1.16,1.93,1.93c2.7,5.78,6.16,11.17,7.71,17.72c0.77,3.85,1.16,7.32,1.93,11.17c0.77,4.24,0.39,8.86-1.54,12.72
				c-1.54,3.08-2.31,6.55-3.85,9.63c-0.38,1.93-1.15,3.85-1.54,5.78c-2.31,7.71-4.62,15.41-8.09,23.12c0,0-0.38,0.38-0.38,0.77
				c0,0,0,0.38-0.77,1.16c-0.39,2.69-1.16,5.78-2.7,8.86c0.77-0.39,1.54-0.39,1.93-0.77c3.85-4.24,8.09-9.25,11.95-13.87
				c6.93-7.7,13.1-15.41,19.65-23.12c2.7-3.08,5.01-5.39,7.32-8.86c7.32-10.02,15.41-18.88,23.5-27.74
				c1.54-1.54,3.08-2.69,4.24-3.08c3.47-1.54,6.94-1.93,9.63-1.54c1.54,0.77,2.7,1.15,3.47,1.93c3.08,3.08,5.78,6.55,8.86,9.25
				c1.93,1.54,3.08,3.85,4.24,6.94c0.77,2.7,1.54,5.01,1.93,8.09c0.77,3.85,0.77,7.7-0.39,11.94c-2.7,8.86-5.01,16.96-8.48,25.05
				c-0.77,3.47-2.31,6.94-3.08,11.17c1.16-0.38,2.31-1.16,2.7-1.54c7.71-4.24,14.64-10.4,21.19-17.34
				c6.16-5.78,12.72-11.17,19.65-15.02c1.16-0.38,1.93-1.16,3.08-2.32c2.31-1.93,4.24-1.54,5.78,0c1.93,1.54,2.7,4.24,5.39,5.4
				c1.93,0.77,3.08,2.69,4.62,4.62c-0.38,3.47-0.38,6.55,0,9.64c0,2.69-0.77,5.39-1.93,8.47c-2.31,1.16-0.77,4.24-2.31,6.17
				c-0.38,4.63-1.16,9.25-1.93,13.49c-0.39,4.24-0.39,8.09,0,12.33c0,2.69,0.77,3.85,2.7,4.62c5.78,1.16,25.82-13.1,29.67-18.11
				c6.94-7.7,12.71-16.57,18.11-25.82c0.39-1.93,1.16-3.85,2.31-5.01c0.77,1.16,1.15,1.16,0.77,1.54c-1.16,5.78,0.77,2.32,0,8.86
				c0-1.54-1.93,6.55-3.08,5.78c-0.77,0-0.77,1.15-1.54,1.93c-2.31,4.24-4.62,8.09-6.55,12.71c0,1.54-1.16,2.69-1.54,3.47
				c-3.47,2.31-5.78,5.01-8.48,7.7c0,1.16-1.16,1.54-1.93,1.93c-1.93,4.24-18.11,15.8-22.35,15.8c-1.93,0-11.17-0.77-13.1-2.31
				c-3.85-3.47-10.02-7.7-12.33-13.1c-1.93-4.63-1.93-10.4-0.38-16.19c1.93-9.63,4.24-18.88,7.71-28.13
				c0.38-1.15,0.77-2.69,0.77-3.85c0.39-0.77,0-1.15,0-2.31c-2.31,0.38-3.85,3.08-5.78,3.47c-1.93,0.77-3.85,1.54-5.39,2.69
				c-0.39,3.86-0.39,3.86-2.7,7.32c-1.54,1.54-2.31,3.47-3.85,5.39c-1.93-1.16-3.85,0-5.78,1.54c-3.08,2.69-5.78,5-9.25,7.7
				c-0.77,0.77-1.93,1.16-2.7,2.69c-3.47,4.24-7.71,7.32-12.33,10.79c-0.38,0.77-1.16,0.77-1.93,1.93
				c-2.31,4.62-6.94,6.94-10.4,10.79c-1.16,1.54-2.31,3.08-3.85,4.62c-6.16,5.01-13.1,6.94-19.65,6.17
				c-3.08-0.38-5.78-2.31-8.09-5.01c-2.7-2.69-3.85-6.16-3.47-11.56c0-4.24,0.77-8.09,2.31-12.33c6.16-19.26,15.41-36.22,26.59-52.4
				c2.7-5.01,6.16-9.64,8.86-15.03c1.54-1.54,2.7-3.47,1.93-5.78c-1.16-1.16-2.7-1.16-4.24,0.38c-0.77,1.16-1.93,1.93-3.47,3.08
				c-3.85,3.85-7.71,7.7-11.56,10.79c-2.31,2.7-4.24,5.01-5.78,8.48c-1.93,4.62-4.24,8.48-7.32,11.95
				c-3.47,3.47-6.55,6.55-8.86,10.4c-2.31,3.08-3.85,6.55-5.78,9.63c-0.77,1.93-2.31,4.63-3.47,6.55c-0.77,1.15-1.93,2.69-2.7,3.85
				C432.08,515.99,431.3,515.21,430.92,515.21z"/>
			<path class="st0" d="M602.38,463.97c0,0,0,0,0.38-0.38c1.16-1.54,1.93-1.93,3.08-2.69c4.24-0.77,13.87-7.71,17.72-5.39
				c1.16,1.54,5.01,3.47,6.55,5c1.54,1.93,1.93,4.63,0.77,8.48c-2.31,5.01-5.01,9.64-8.09,15.8c-0.77,2.31-1.54,4.24-1.93,5.78
				c-1.54,3.47-3.08,8.09-5.01,11.56c-1.54,4.63,5.39-10.02,4.62-6.16c0,1.15-0.77,2.31-1.16,3.08c-3.08,7.71-3.08,6.17-3.47,13.1
				c0,3.85-1.54,23.5-1.16,26.97c0.38,2.7,1.93,4.24,3.08,5.78c1.54,0.77,3.47,2.31,5.78,3.08c1.93,1.54,3.85,0.77,6.16,0.38
				c31.98-11.56,20.42-15.8,38.92-35.45c3.47-5.01,7.71-9.63,9.63-15.8c0-0.38,0-0.38,1.16-2.31c1.93,3.85-2.31,9.25,3.08,10.4
				c-8.09,14.64-13.87,35.83-26.97,43.54c-3.85,5.01-30.05,28.13-47.01,21.58c-5.39,1.93-10.4-3.47-16.18-5.78
				c-3.85-1.54-7.7-4.62-11.17-8.47c-1.93-5.01-3.85-10.4-3.85-15.41c-0.77-2.31-0.77-5.01-0.77-6.94
				c1.16-4.63,0.39-13.49,1.93-16.57c0.38-1.93,1.16-3.86,1.16-6.17c0.77-0.38,0-2.31,2.7-2.69c0.38,0,0.77-1.54,1.16-1.93
				c1.93-2.69,2.31-5.01,4.24-7.7c0,0-8.09,8.09-3.47,0.38c3.08-7.7,10.02-16.18,12.33-21.58c0-0.77,0.77-1.93,0.77-1.93
				c1.16-2.31,2.31-3.85,1.54-6.55c-0.39-1.54,0-3.08,1.16-5.39C600.83,463.97,601.22,464.36,602.38,463.97z M637.82,421.97
				c-0.77,1.15-1.54,1.93-1.93,3.46c0,0.39,0,1.16-0.77,1.93c-1.16,1.15-2.31,2.69-3.85,4.62c-0.77,1.16-3.85,2.7-5.78,3.08
				c-0.77-0.38-1.93,0.38-2.7,1.16c-2.31,1.54-3.85,1.15-5.39,0.38c-1.16-0.77-1.93-0.77-3.08-0.77c-1.54,0-2.7,0-4.24-0.38
				c0.38-0.38,0.77-1.15,1.15-1.54c0-1.15,0.77-2.31,1.16-3.85c0.77-1.93,1.54-3.08,2.7-5.01c0-0.77,1.16-1.54,1.16-1.93
				c0-2.31,1.93-4.24,3.08-6.55c0.77-1.15,1.54-2.31,2.31-3.47c0.77-0.77,1.54-1.54,2.31-1.54c0.77-0.39,1.54-0.39,1.93,0
				c0,0.77,0.77,0.77,1.54,0.38c0.77-0.38,1.16-0.77,1.54-0.38c1.54,0.77,3.47,1.15,5.01,1.54c2.7,1.16,4.62,3.08,6.16,5.78
				C638.98,420.04,638.6,421.2,637.82,421.97z"/>
			<path class="st0" d="M786.16,514.83c-1.93,3.85-8.48,12.33-8.48,16.57c-0.38,0.38-1.54,1.54-2.31,1.93
				c-1.16,1.15-2.31,2.69-3.08,4.62c-0.77,1.93-1.93,2.7-2.7,4.24c-5.39,9.63-8.86,15.02-17.72,23.5
				c-2.31,1.93-22.73,21.58-24.27,23.5c-11.17,9.25-26.2,5.01-37.38,5.4c-3.08,0-6.16-0.39-8.09-1.54
				c-3.47-1.93-11.17-5.01-13.49-8.48c-3.47-8.48-12.33-14.26-13.1-26.2c-0.39-3.08-1.93-5.01-2.31-8.09
				c0.39-12.33,2.31-24.66,3.85-37.37c2.31-8.86,4.24-18.49,5.78-27.35c3.85-16.57,5.01-18.5,12.33-33.52
				c3.85-10.02,7.32-10.79,11.17-20.81c2.7-5.39,5.78-10.79,8.86-15.41c2.31-5.78,6.16-11.17,9.63-16.96
				c7.32-12.71,15.41-23.89,23.89-33.13c5.78-5.78,11.94-11.95,17.72-16.96c3.47-2.7,6.94-5.78,10.4-6.94
				c1.16-0.77,2.31-1.16,3.47-1.54c5.39-0.38,10.4,0.38,14.26,4.24c3.85,3.47,5.01,8.86,3.85,16.18c-0.77,4.62-1.16,9.25-2.31,13.48
				c-0.39,3.47-1.93,6.55-3.85,10.4c-2.7,6.55-5.78,12.72-10.02,18.88c-2.7,5.01-5.78,10.02-8.48,15.03
				c-4.62,6.93-8.48,14.26-13.1,20.8c-8.09,10.79-15.03,22.35-22.35,33.14c-11.95,20.42-10.79,23.89-15.03,44.31
				c-1.54,8.09-0.77,12.72-1.16,20.81c0.38,2.31,1.54,17.34,1.93,18.88c1.16,5.39,2.31,7.32,4.62,12.33
				c0.77,1.54,6.16,2.69,8.09,3.47c2.7,1.93,23.12-11.95,25.82-13.87c6.17-3.47,11.17-9.25,16.57-14.64
				c5.78-5.39,8.48-11.56,13.49-18.88c6.94-9.25,9.25-16.96,16.57-26.97C794.64,497.11,791.56,505.2,786.16,514.83z M724.51,445.48
				c12.33-19.65,14.26-22.73,25.43-43.93c4.24-8.09,7.71-16.18,11.95-24.28c1.93-5.78,3.08-11.56,3.85-17.34
				c0.77-1.93,0.77-3.08-1.16-2.31c-1.93,0.38-3.08,1.16-4.24,1.93c-5.01,1.93-9.63,5.78-13.1,11.17c-2.7,3.08-4.62,6.55-7.71,9.64
				c-3.47,4.24-5.39,8.48-6.94,13.49c-1.93,3.85-3.85,8.47-5.78,12.33c-2.7,8.09-6.55,16.18-10.4,24.27
				c-1.54,3.86-2.7,8.09-4.24,11.95c-4.62,13.1-2.7,6.55-6.94,19.65c-1.16,3.08-0.38,11.95,4.62,6.55
				C715.65,460.12,719.5,454.34,724.51,445.48z"/>
			<path class="st0" d="M805.42,497.49c0,0.77-0.77,1.54-1.54,1.93c-0.38,0.39-1.16,0.77-1.16,1.93c-0.39,1.54-0.77,1.93-1.93,2.31
				c-0.77,0.38-0.77,0.77-1.16,3.08c0.77,0,1.16,0,1.54,0.38c0,0,0,0,0,0.38c-0.77,0-1.54,0-2.7,0c0.38-1.16,0.38-2.31,0.38-3.08
				c-0.38,0-0.77,0-0.77,0c-0.38,2.7-0.77,5.39-1.16,8.09c0.77,0.38,1.16,0.77,1.54,0.77c0.38,2.7,0.38,5.01,0.38,7.71
				c0,2.69,0.77,5.01,1.54,6.94c1.16,1.54,4.24,10.02,5.39,11.56c5.39,5.39,11.95,12.33,18.11,12.71c1.93,0.39,13.1-1.54,15.03-1.93
				c9.25-2.69,18.11-7.7,26.59-14.26c6.55-5.01,12.71-10.79,19.27-16.18c0.38-0.38,0.77-0.77,1.15-1.16
				c2.31-2.69,4.62-5.01,6.94-7.7c4.24-4.24,8.09-8.48,11.56-13.49c1.16-1.93,2.31-3.85,4.62-4.62c-0.77,3.47-1.54,6.55-3.08,9.63
				c-0.39,1.16-1.16,2.31-1.93,3.08c-2.31,2.7-4.24,5.01-5.78,8.09c-1.16,1.54-2.7,3.08-3.85,4.62c-0.39,0.38-0.77,1.16-1.54,2.31
				c1.16-0.39,1.93-0.77,3.08-1.16c-0.38,2.31-2.31,2.69-2.7,4.62c0.39,0.39,0.39,0.77,1.16,1.16c-1.16,1.93-2.31,3.08-3.85,4.63
				c-2.31,1.93-4.62,4.24-6.55,6.55c-3.47,3.86-7.32,6.94-11.17,10.02c-1.93,1.54-3.47,3.08-5.39,4.24
				c-1.54,1.15-3.08,1.93-4.62,3.08c-2.31,1.16-4.62,2.31-6.94,3.86c-3.85,2.31-8.09,4.24-12.33,5.01
				c-1.16,0.39-2.31,0.77-3.47,1.16c-4.62,1.54-9.25,2.31-13.87,2.7c-5.39,0.77-28.13-3.47-33.14-5.4
				c-13.49-5.39-16.18-11.94-22.35-17.34c-2.31-1.93-4.24-5.01-5.39-8.09c-1.93-5.01-2.31-10.4-2.7-16.18
				c0-11.95,3.08-23.5,8.09-34.3c1.16-2.31,1.16-2.31,0.77-5.78c-1.93,1.16-3.08,1.93-3.85,4.24c-1.16,3.46-2.7,6.55-4.62,10.01
				c0-3.47,1.54-5.78,2.7-8.48c3.08-6.94,6.55-13.48,10.79-19.65c4.24-6.55,8.86-12.33,14.26-17.72
				c5.39-5.78,11.17-10.79,17.34-14.64c1.54-0.77,2.7-1.16,3.85-1.93c1.93-0.77,3.85-1.16,5.01,0.77c1.15,1.16,2.7,0.77,3.47,1.54
				c1.16,0.77,1.54,2.31,2.31,3.08c3.85,1.93,18.49,5.78,21.96,8.09c1.16,0.77,1.93,2.31,2.7,3.86c1.93,3.47,3.47,7.32,6.17,9.63
				c0.77,0.77,1.16,2.31,1.54,3.47c0.77,4.63,1.15,8.86,0,13.87c-0.77,5.39-3.08,10.4-5.78,15.03c-1.54,2.7-3.08,5.01-4.24,8.09
				c-0.77,2.7-2.31,5.01-3.85,7.7c-1.54,3.08-4.24,5.01-6.94,5.78c-2.31,1.15-5.01,1.54-7.32,1.15c-1.15-0.38-2.31,0-3.08-1.54
				c0-0.38-0.39-0.38-0.39-0.38c-3.08,0.38-5.01-3.08-7.32-4.24c-0.38-0.38-0.77-1.54-0.77-1.93c0.77-1.54,0-2.32-0.38-3.47
				c-1.54-3.08-3.08-6.55-5.01-9.64c-0.39-1.15-1.54-1.54-2.7-0.38C806.96,493.64,805.42,495.18,805.42,497.49z M768.82,532.17
				c0.39,1.16,0.77,1.93,1.16,3.08c0,1.15,1.16,1.93,0.39,3.47c-0.39-0.38-0.77-0.38-0.77-0.77c-1.93-3.85-2.7-8.86-3.47-13.87
				c-0.38-0.38,0-0.77,0-1.15c0-5.78,0-11.18,1.54-16.96c0.38-1.15,0.77-2.31,0.77-3.47c0-0.77,0-1.15,0-2.69
				c-1.16,2.31-1.93,3.85-2.31,5.39c-0.38,1.93-0.77,3.47-1.16,5.39c-1.54,10.02-1.16,19.27,3.08,27.35
				c0.77,1.54,1.93,2.7,3.08,4.24c0.77,0.77,1.54,1.15,2.7,1.54c0,0.38,0.38,0,1.16,0c-1.16-1.93-2.31-3.47-3.08-5.39
				c-1.16-2.31-1.16-4.63-2.31-6.55C769.2,531.79,768.82,532.17,768.82,532.17z M768.82,507.51c-1.93,6.17-1.54,11.95-0.77,17.72
				c0,0.38,0.39,0.38,0.77,0.77c0.39-4.24,0.77-8.09,1.16-11.95c0.39-2.7,0.77-5.39-0.38-7.71
				C769.2,506.74,768.82,507.13,768.82,507.51z M796.18,517.15c0,0.38,0,0.38,0,0.77C796.18,517.53,796.18,517.53,796.18,517.15z
				 M817.37,476.69c-0.77,1.15-1.93,2.69-2.7,4.24c-1.54,2.7-1.16,4.63,0.77,5.78c1.15,0.77,2.7,1.54,3.47,2.7
				c2.31,2.69,5.39,2.31,8.48,1.93c2.7-0.77,4.62-3.47,6.17-6.17c2.7-6.55,4.24-7.7,6.55-14.26c6.17-14.64-6.16-11.17-11.94-6.55
				C823.92,467.44,820.83,472.45,817.37,476.69z"/>
		</g>
	</g>
</g>
</svg>
